<svg version="1.0" xmlns="http://www.w3.org/2000/svg"
 width="120.000000pt" height="80.000000pt" viewBox="0 0 1200.000000 800.000000"
 preserveAspectRatio="xMidYMid meet">
<metadata>
Created by potrace 1.16, written by Peter Selinger 2001-2019
</metadata>
<g transform="translate(0.000000,800.000000) scale(0.100000,-0.100000)"
fill="#000000" stroke="none">
<path d="M2035 7974 c-65 -27 -105 -63 -105 -95 0 -20 0 -20 26 0 15 11 29 19
33 17 3 -2 7 -91 9 -197 2 -106 5 -195 8 -198 16 -17 24 40 29 229 6 232 8
240 62 240 14 0 23 6 23 15 0 20 -13 18 -85 -11z"/>
<path d="M4346 7944 c-15 -30 -36 -76 -47 -101 -11 -25 -36 -72 -55 -104 -20
-32 -33 -62 -30 -67 10 -16 237 -85 286 -86 35 -1 35 -1 35 44 1 53 9 70 36
70 11 0 20 7 20 18 1 9 3 26 4 37 1 11 2 33 3 48 1 16 9 30 20 34 9 4 23 14
29 22 11 14 14 14 23 1 10 -13 11 -13 9 0 -3 29 1 41 12 34 8 -4 9 3 5 23 -4
16 -2 42 3 56 l11 27 -169 0 -168 0 -27 -56z"/>
<path d="M1306 7918 l-33 -33 5 -215 c2 -118 6 -217 8 -219 3 -3 10 1 17 8 8
8 12 45 11 111 l-1 99 38 6 c21 4 46 2 58 -5 19 -10 21 -20 21 -106 0 -92 1
-95 21 -92 21 3 22 8 20 98 -2 132 -20 268 -43 312 -15 32 -60 68 -84 68 -3 0
-21 -15 -38 -32z m78 -80 c13 -24 27 -64 31 -89 l7 -46 -53 -7 c-64 -9 -69 -3
-69 79 0 63 18 105 45 105 8 0 25 -19 39 -42z"/>
<path d="M1533 7939 c-12 -12 12 -66 58 -130 32 -45 56 -121 68 -213 13 -96
16 -106 33 -106 8 0 9 35 5 116 -5 109 -4 120 24 202 34 102 37 135 12 130
-11 -2 -23 -23 -34 -58 -19 -62 -40 -75 -58 -33 -12 31 -75 103 -88 103 -5 0
-14 -5 -20 -11z"/>
<path d="M1155 7929 c-4 -5 -4 -67 0 -136 9 -146 -2 -159 -40 -49 -21 61 -66
126 -86 126 -13 0 -32 -94 -38 -184 -4 -58 -10 -91 -18 -94 -7 -2 -15 2 -17
10 -15 57 -32 103 -60 168 -19 41 -36 83 -40 93 -6 19 -31 23 -41 7 -3 -6 2
-22 13 -38 25 -37 47 -86 67 -152 37 -121 84 -240 95 -240 11 0 20 39 20 90 0
25 7 72 15 105 8 33 14 74 15 92 1 113 51 64 70 -69 15 -102 41 -208 50 -208
19 0 22 28 20 193 -2 230 -2 238 15 263 8 12 11 24 8 28 -10 10 -41 7 -48 -5z"/>
<path d="M7952 7878 c-8 -8 -36 -11 -76 -10 -61 3 -65 2 -68 -20 -2 -17 -10
-23 -28 -24 -49 -1 -60 -4 -60 -15 0 -5 4 -8 9 -4 5 3 21 0 35 -6 22 -10 29
-9 45 5 11 10 25 15 31 11 6 -4 16 -2 23 3 7 6 55 10 107 9 89 -2 95 -1 95 18
0 14 -8 21 -27 23 -16 2 -28 8 -28 13 0 13 -44 11 -58 -3z"/>
<path d="M5792 7863 c3 -14 19 -16 138 -15 152 1 204 -12 214 -54 7 -28 21
-31 30 -6 3 9 8 22 11 28 3 6 -4 14 -16 17 -16 4 -20 11 -16 26 5 21 2 21
-180 21 -167 0 -184 -2 -181 -17z"/>
<path d="M6557 7873 c-4 -3 -7 -14 -7 -22 0 -14 19 -16 153 -15 149 1 187 -6
187 -33 0 -20 19 -25 41 -9 l21 14 -27 18 c-17 11 -25 23 -22 36 5 17 -5 18
-167 18 -95 0 -176 -3 -179 -7z"/>
<path d="M7045 7870 c-3 -4 4 -15 14 -24 13 -12 29 -15 57 -11 64 10 232 -10
254 -30 10 -9 16 -23 13 -30 -4 -11 -40 -14 -170 -14 -91 0 -167 -2 -170 -5
-3 -3 -2 -21 1 -41 6 -28 10 -34 20 -26 14 12 235 9 255 -3 7 -4 10 -15 7 -23
-3 -8 -4 -19 -1 -24 9 -14 12 -169 4 -175 -12 -7 -242 -6 -261 1 -15 6 -18 2
-18 -21 l0 -29 131 0 c72 0 136 -3 142 -7 6 -4 11 -50 12 -117 1 -61 3 -111 6
-112 13 -2 59 15 59 22 0 5 -4 9 -9 9 -6 0 -10 17 -10 38 -2 109 -3 403 -2
444 1 40 4 47 23 50 16 2 24 12 28 32 6 35 22 43 43 22 10 -11 35 -15 83 -15
63 0 70 2 81 25 11 23 1 35 -12 14 -10 -16 -25 -12 -19 5 8 21 -3 19 -28 -5
-24 -22 -58 -26 -75 -9 -5 5 -27 12 -48 15 -49 6 -57 12 -50 35 6 18 -1 19
-175 17 -99 -1 -183 -4 -185 -8z"/>
<path d="M5905 7760 l-120 -5 4 -55 c2 -30 3 -70 3 -87 0 -28 3 -32 21 -29 29
4 31 19 7 41 -21 19 -27 60 -9 70 15 10 252 6 262 -4 10 -10 26 -182 20 -214
-4 -21 -9 -22 -123 -22 -105 0 -121 3 -133 19 -22 29 -47 14 -47 -29 0 -19 4
-35 10 -35 9 0 7 -23 -6 -87 -4 -20 0 -23 25 -23 24 0 28 3 24 20 -3 11 -1 20
5 20 6 0 5 14 -3 38 -7 20 -12 39 -10 40 3 4 99 5 187 3 54 -1 61 -12 62 -101
1 -47 4 -55 21 -58 19 -3 20 3 21 230 1 128 3 242 5 253 5 23 -11 24 -226 15z"/>
<path d="M7767 7723 c7 -57 8 -59 27 -44 11 9 16 9 21 0 6 -8 10 -7 17 5 7 13
26 16 109 14 120 -2 121 -3 126 -125 6 -125 9 -123 -147 -117 -116 5 -131 4
-136 -11 -11 -28 11 -32 137 -29 93 2 122 -1 134 -12 10 -10 14 -40 14 -109
l0 -96 -31 -6 c-29 -6 -30 -7 -10 -14 12 -5 35 -6 50 -3 l27 6 -1 252 c-2 198
-5 259 -17 287 l-15 36 -142 2 c-78 1 -147 4 -155 7 -10 4 -11 -6 -8 -43z"/>
<path d="M5265 7750 c-9 -14 4 -70 16 -70 5 0 9 4 9 9 0 5 57 8 126 7 152 -2
152 -2 154 -121 2 -123 5 -114 -42 -115 -24 -1 -56 -2 -73 -3 -16 -1 -30 3
-30 8 0 6 17 10 38 9 35 -1 37 1 37 32 0 55 -22 125 -38 119 -8 -3 -10 0 -6 6
4 8 -6 9 -34 4 -25 -4 -47 -2 -60 6 -10 7 -26 9 -35 6 -13 -5 -14 -13 -5 -49
13 -61 3 -107 -28 -118 -14 -6 -24 -18 -24 -29 0 -32 11 -50 26 -44 8 3 21 2
30 -1 12 -5 14 -9 5 -20 -9 -11 -3 -15 31 -24 37 -9 206 -36 232 -37 4 0 9 98
10 217 l1 218 -167 0 c-103 0 -169 -4 -173 -10z"/>
<path d="M6527 7753 c-8 -13 5 -103 14 -103 5 0 9 11 9 24 0 24 0 24 132 25
72 1 129 -2 125 -5 -4 -4 -2 -12 3 -19 5 -6 11 -57 13 -113 3 -90 2 -101 -14
-105 -30 -8 -243 4 -255 14 -13 10 -24 -9 -24 -40 0 -16 13 -18 139 -17 77 1
142 -2 146 -6 12 -12 9 -196 -4 -211 -9 -12 -8 -16 4 -21 19 -7 45 3 45 18 0
6 1 135 2 286 l1 275 -166 3 c-91 1 -168 -1 -170 -5z"/>
<path d="M9529 7742 c-112 -2 -117 -4 -121 -25 -6 -37 3 -127 14 -127 6 0 8 9
5 20 -5 18 0 20 43 20 47 0 48 0 55 -37 13 -68 16 -116 10 -140 -5 -21 -11
-23 -65 -23 -32 0 -61 -4 -64 -8 -10 -16 11 -32 40 -30 16 1 41 1 55 0 l27 -2
-4 -85 c-3 -47 -2 -85 2 -85 4 0 24 5 45 11 l38 12 3 66 3 66 53 3 c66 4 84
-9 80 -57 -2 -30 0 -36 18 -39 11 -2 26 3 31 10 7 8 13 84 15 183 4 130 8 179
21 207 9 21 17 42 17 47 0 11 -151 17 -321 13z m153 -107 c3 -13 6 -13 32 0
16 9 30 14 32 12 7 -6 14 -72 15 -130 1 -106 8 -97 -76 -97 l-74 0 3 33 c2 17
7 65 11 105 6 50 12 72 21 72 8 0 14 5 14 10 0 16 18 12 22 -5z"/>
<path d="M10335 7722 c-9 -23 -5 -60 6 -64 5 -2 11 -10 12 -18 3 -21 16 -40
27 -40 6 0 6 9 1 23 -8 21 -6 23 26 23 28 0 33 -3 30 -18 -3 -10 -1 -18 4 -18
5 0 9 -9 9 -20 0 -11 5 -20 11 -20 5 0 7 -5 3 -12 -9 -15 -11 -78 -2 -78 4 0
23 7 42 16 27 14 35 24 40 53 19 123 13 116 74 94 6 -3 12 1 12 8 0 8 8 4 20
-9 11 -12 20 -28 20 -36 0 -8 4 -17 10 -21 5 -3 7 -12 3 -20 -6 -18 5 -19 32
-2 14 9 21 24 22 55 1 23 9 57 17 74 9 17 16 34 16 37 0 3 -97 6 -215 6 -170
0 -216 -3 -220 -13z"/>
<path d="M11479 7700 c-61 -10 -99 -31 -137 -75 -43 -48 -59 -81 -70 -145 -11
-60 -7 -74 12 -47 7 9 18 17 25 17 6 0 11 7 11 15 0 18 12 19 29 3 10 -11 12
-9 9 7 -2 13 5 23 20 30 12 5 22 15 22 21 0 17 69 81 112 104 21 11 56 20 78
20 22 0 40 5 40 11 0 5 4 8 9 5 5 -3 14 1 21 8 23 29 -79 43 -181 26z"/>
<path d="M3297 7597 c-43 -14 -97 -61 -97 -85 1 -16 25 -89 48 -142 22 -53 77
-99 313 -264 74 -52 114 -186 73 -245 -19 -26 -107 -71 -142 -71 -90 0 -188
68 -235 164 -20 40 -33 56 -47 56 -59 0 24 -214 117 -305 36 -35 141 -75 196
-75 73 1 203 92 194 137 -2 13 -1 23 3 23 17 0 16 78 -1 135 -37 120 -137 231
-320 354 -60 40 -67 49 -75 99 -6 38 -4 44 30 78 36 36 38 37 99 31 84 -7 159
-32 199 -65 l32 -27 -20 33 c-27 47 -44 63 -101 100 -54 35 -176 82 -208 81
-11 0 -37 -6 -58 -12z"/>
<path d="M11067 7546 c-23 -34 -41 -150 -32 -205 4 -25 8 -59 9 -76 1 -23 5
-29 19 -27 20 3 21 -2 5 -27 -13 -22 3 -51 28 -51 17 0 18 -12 2 -28 -17 -17
-26 -15 -31 6 -3 10 -5 7 -4 -8 1 -14 -3 -42 -7 -63 -7 -33 -12 -38 -30 -33
-11 3 -24 6 -28 6 -4 0 -5 7 -2 15 4 8 1 15 -6 15 -6 0 -9 4 -6 9 3 5 -1 14
-9 21 -7 6 -11 18 -8 26 3 9 -18 36 -54 72 -62 59 -103 132 -103 183 0 18 -7
32 -19 38 -23 13 -26 10 -77 -88 l-38 -74 2 -151 c1 -83 4 -209 6 -281 l4
-130 36 -18 c20 -10 36 -26 36 -35 0 -12 3 -13 11 -5 7 7 11 40 11 75 -1 35 5
84 13 110 12 40 12 56 1 99 -13 48 -13 83 0 167 3 17 9 32 14 32 15 0 84 -49
102 -73 16 -19 18 -20 18 -4 0 10 5 15 10 12 6 -4 8 -10 5 -15 -3 -4 1 -11 7
-13 10 -4 10 -7 1 -14 -9 -6 -9 -20 -3 -48 5 -22 10 -57 10 -77 0 -20 4 -39 9
-43 5 -3 12 -18 16 -34 9 -42 53 -79 100 -83 l40 -3 -2 64 c-1 40 -7 67 -15
72 -10 7 -10 9 0 9 6 0 12 10 12 23 0 16 -3 18 -9 8 -6 -10 -10 -10 -16 -1 -4
6 1 17 10 24 9 6 16 19 14 27 -4 18 8 73 28 125 11 32 12 47 4 63 -8 14 -8 21
-1 21 5 0 10 7 10 15 0 18 -4 19 -30 3 -15 -10 -22 -10 -31 -1 -16 16 -4 43
18 43 10 0 25 4 32 9 12 8 11 13 -10 31 -22 19 -22 20 -4 18 19 -3 20 3 20
113 0 115 0 116 -30 147 -16 18 -33 32 -36 32 -4 0 -14 -11 -22 -24z"/>
<path d="M3780 7435 c41 -43 79 -64 174 -95 l68 -24 -5 -95 c-10 -169 -9 -303
3 -421 16 -153 17 -158 42 -178 13 -9 38 -33 57 -52 l34 -34 -6 84 c-3 47 -11
119 -17 160 -6 41 -8 118 -5 170 3 52 8 142 10 199 2 56 9 109 15 116 8 10 34
6 127 -16 64 -16 119 -27 121 -24 2 2 -11 28 -31 57 l-35 53 -173 44 c-96 23
-210 52 -254 63 -44 12 -98 23 -120 26 l-40 4 35 -37z"/>
<path d="M0 7286 c0 -39 11 -61 93 -185 50 -78 123 -190 161 -249 38 -59 120
-183 181 -277 165 -252 208 -318 221 -340 31 -55 86 -142 146 -233 37 -55 74
-115 84 -134 9 -18 36 -66 60 -105 43 -70 52 -93 37 -93 -11 0 -153 150 -153
161 0 6 -7 9 -15 5 -8 -3 -15 -1 -15 4 0 6 -11 10 -25 10 -14 0 -25 5 -25 10
0 6 5 10 10 10 6 0 10 7 10 16 0 9 -5 14 -12 12 -11 -4 -123 106 -141 138 -4
8 -15 14 -22 14 -8 0 -15 4 -15 10 0 5 -55 65 -122 134 -175 178 -345 356
-371 389 -12 16 -36 44 -54 64 l-33 36 0 -46 c0 -27 6 -49 15 -57 8 -7 15 -19
15 -26 0 -8 9 -14 19 -14 11 0 35 -18 54 -40 19 -22 38 -40 43 -40 5 0 22 -13
37 -30 34 -36 17 -41 -19 -5 -39 40 -39 29 2 -20 l36 -45 -26 0 c-28 0 -33 -9
-15 -27 9 -9 19 -8 40 2 23 12 28 12 32 1 3 -8 14 -12 24 -10 14 4 35 -11 71
-48 53 -54 55 -74 5 -41 -20 14 -25 14 -18 3 8 -15 45 -44 55 -45 33 -4 135
-88 125 -104 -3 -6 4 -15 15 -21 11 -6 41 -31 66 -55 38 -37 44 -48 34 -60
-10 -12 -9 -16 4 -20 48 -15 73 -32 129 -87 26 -27 47 -52 47 -58 0 -5 11 -17
25 -26 53 -34 13 -48 -42 -14 -19 11 -30 25 -27 33 6 16 -72 69 -95 65 -13 -3
-12 -7 6 -23 12 -10 19 -23 16 -28 -3 -4 -16 1 -28 13 -13 12 -29 19 -35 15
-6 -4 -20 1 -31 11 -17 16 -19 16 -19 1 0 -10 5 -17 10 -17 6 0 10 -7 10 -16
0 -11 6 -15 20 -11 13 3 20 0 20 -10 0 -9 8 -13 22 -11 16 2 23 -2 23 -15 0
-10 15 -33 34 -52 34 -35 51 -43 51 -26 0 16 34 18 58 3 20 -13 22 -13 16 2
-8 20 5 20 30 1 11 -8 28 -15 37 -15 10 0 27 -12 39 -27 19 -25 20 -28 5 -31
-9 -2 -34 8 -57 23 -22 15 -42 25 -44 22 -7 -7 157 -168 169 -166 7 1 25 -3
40 -9 32 -14 27 -36 -6 -27 -19 5 -20 5 -4 -5 9 -6 17 -22 17 -35 0 -14 10
-31 25 -42 14 -10 35 -26 47 -35 11 -10 25 -18 30 -18 4 0 8 -9 8 -21 0 -12
-5 -19 -14 -17 -23 5 -276 240 -276 256 0 9 -43 42 -55 42 -3 0 -5 -7 -5 -15
0 -8 6 -15 13 -15 8 0 22 -16 33 -37 23 -44 53 -77 78 -86 15 -6 16 -10 6 -22
-7 -9 -10 -19 -6 -22 4 -4 11 -1 16 7 7 12 18 5 54 -33 25 -26 50 -47 56 -47
5 0 7 -7 4 -15 -4 -8 -1 -22 6 -30 18 -22 21 -75 5 -75 -7 0 -15 -5 -17 -12
-2 -6 -15 -13 -28 -15 -33 -5 -37 -11 -14 -27 17 -13 20 -12 28 2 5 9 11 19
13 21 2 3 17 -11 33 -29 23 -25 28 -39 23 -59 -8 -34 -10 -36 -27 -22 -11 9
-15 8 -20 -5 -5 -12 -10 -14 -19 -5 -11 8 -13 5 -9 -18 3 -19 11 -31 25 -35
26 -7 34 1 19 16 -14 14 -16 28 -3 28 5 0 13 -10 17 -22 4 -13 14 -28 23 -35
14 -11 13 -14 -9 -36 -14 -12 -40 -32 -57 -42 l-33 -19 -32 33 c-30 31 -32 32
-40 12 -4 -13 -13 -18 -22 -15 -8 3 -25 -2 -38 -10 -14 -9 -28 -13 -31 -9 -4
3 -7 -3 -7 -15 0 -11 6 -23 13 -25 9 -4 8 -8 -3 -16 -12 -8 -12 -13 -3 -22 18
-18 63 4 63 31 0 34 43 20 45 -15 1 -5 9 -35 18 -66 20 -64 30 -69 138 -69 33
0 59 -4 59 -8 0 -5 -25 -26 -55 -46 -29 -21 -58 -43 -64 -50 -12 -14 5 -101
27 -134 29 -44 -2 -41 -77 8 l-74 49 -31 -21 c-17 -12 -32 -26 -34 -30 -2 -4
-10 -8 -18 -8 -8 0 -14 -4 -14 -10 0 -5 9 -10 20 -10 12 0 36 -15 54 -33 19
-19 41 -37 51 -41 14 -5 15 -9 5 -21 -7 -8 -19 -15 -26 -15 -8 0 -14 -4 -14
-10 0 -5 -7 -10 -15 -10 -8 0 -15 8 -15 18 0 26 -11 34 -27 21 -9 -9 -13 -8
-13 0 0 6 -5 11 -11 11 -8 0 -7 -5 2 -16 10 -13 10 -17 -1 -24 -8 -5 -11 -12
-7 -17 5 -4 12 -1 18 7 8 13 12 11 27 -9 9 -13 27 -34 40 -48 25 -27 32 -64 8
-44 -10 8 -21 7 -44 -5 -28 -13 -30 -18 -19 -35 14 -23 27 -25 27 -4 0 14 4
17 33 19 6 1 15 5 18 10 11 15 30 -5 24 -24 -5 -15 -2 -17 15 -13 16 4 20 11
16 28 -5 19 -1 24 22 28 15 3 30 1 33 -5 4 -5 9 -3 12 6 9 23 -4 26 -53 15
-43 -10 -46 -9 -68 18 -29 36 -25 67 8 72 14 1 28 8 32 14 7 12 69 -36 87 -68
7 -11 25 -26 40 -33 38 -17 59 -56 41 -77 -7 -9 -19 -14 -27 -11 -7 3 -13 1
-13 -4 0 -5 -30 -24 -67 -42 -38 -18 -72 -38 -76 -45 -4 -7 -13 -13 -18 -13
-6 0 -30 -13 -54 -30 -24 -16 -51 -30 -59 -30 -9 0 -16 -6 -16 -13 0 -19 -60
-39 -77 -25 -7 6 -16 8 -20 4 -4 -3 2 -13 13 -20 10 -8 17 -16 14 -18 -3 -2
-18 -12 -35 -24 -42 -29 -94 -45 -112 -35 -11 6 -12 10 -4 15 16 10 14 56 -3
56 -7 0 -20 8 -27 17 -12 15 -12 16 4 10 24 -9 22 19 -2 33 -26 13 -31 13 -31
-5 0 -22 -10 -19 -48 18 -33 31 -34 31 -27 7 4 -14 11 -29 16 -35 13 -14 11
-25 -6 -25 -8 0 -15 -6 -15 -14 0 -10 9 -13 29 -11 22 3 31 -1 40 -21 15 -33
14 -42 -4 -60 -11 -12 -12 -20 -4 -35 8 -16 6 -23 -13 -39 -13 -11 -26 -19
-30 -20 -4 0 -24 -16 -45 -35 -41 -37 -63 -42 -106 -22 -31 14 -31 15 -11 42
13 17 16 18 24 5 8 -12 10 -11 10 5 0 27 -15 50 -24 37 -9 -15 -38 -2 -32 14
3 7 1 27 -4 44 l-9 30 30 -20 c36 -26 37 -19 2 20 -20 23 -29 27 -35 18 -6 -8
-7 -5 -3 10 3 12 2 22 -3 22 -15 0 -34 -28 -27 -40 3 -5 -1 -10 -9 -10 -9 0
-16 8 -16 19 0 14 -6 17 -26 13 -14 -2 -28 -11 -31 -19 -4 -11 -8 -11 -21 -1
-13 11 -14 8 -8 -25 7 -37 6 -38 -16 -32 -13 4 -35 14 -50 21 -36 18 -36 18
-30 -12 5 -26 5 -26 -22 -9 -23 16 -26 16 -26 1 0 -9 5 -16 10 -16 13 0 60
-49 60 -61 0 -14 -20 -10 -20 4 0 6 -12 20 -25 30 l-25 18 0 -40 c0 -35 4 -41
25 -47 14 -3 25 -12 25 -20 0 -8 5 -14 10 -14 6 0 10 -4 10 -10 0 -5 -7 -10
-15 -10 -8 0 -15 7 -15 15 0 19 -14 19 -29 1 -19 -22 -11 -135 12 -178 22 -41
16 -64 -8 -32 -13 17 -14 15 -15 -29 l0 -48 43 30 c54 39 300 203 392 261 39
25 104 70 147 100 42 30 102 71 135 92 32 20 99 62 148 93 128 81 333 195 351
195 9 0 46 21 83 46 114 80 263 169 335 199 37 16 75 39 83 52 16 23 57 31 68
13 9 -15 25 -12 25 4 0 8 10 23 23 33 35 28 40 41 21 60 -15 16 -17 16 -29 0
-7 -9 -24 -17 -38 -17 -20 0 -30 8 -43 38 -10 20 -26 49 -36 65 -17 24 -18 28
-4 33 21 8 20 27 -2 54 -16 20 -19 21 -25 7 -4 -11 -1 -17 8 -17 8 0 15 -7 15
-15 0 -29 -16 -14 -70 66 -65 96 -56 82 -119 195 -28 51 -58 97 -66 104 -19
16 -19 40 -1 40 24 0 4 47 -58 138 -31 46 -57 93 -57 105 -1 12 -2 27 -4 32
-1 6 -3 18 -3 27 -1 10 -26 35 -55 56 -29 22 -61 56 -72 76 -11 20 -23 36 -27
36 -3 0 -13 12 -21 28 -54 104 -61 112 -81 106 -19 -6 -19 -5 -6 11 12 15 12
18 -3 26 -9 6 -17 16 -17 22 0 14 -57 67 -71 67 -5 0 -9 6 -9 14 0 7 -7 19
-15 26 -9 7 -13 21 -10 31 4 11 2 19 -5 19 -6 0 -8 -4 -5 -10 3 -5 1 -10 -5
-10 -6 0 -9 12 -8 28 2 17 -1 26 -9 25 -18 -4 -16 14 2 21 26 9 17 29 -9 22
-14 -3 -28 -2 -31 4 -3 5 1 10 9 10 9 0 16 8 16 19 0 22 -25 45 -39 37 -16
-10 -28 25 -25 77 2 26 0 47 -4 47 -4 0 -18 -9 -32 -20 -31 -24 -56 -25 -64
-2 -3 9 -9 24 -13 32 -5 13 -4 13 11 1 27 -22 31 -3 5 22 -30 30 -64 77 -65
91 -1 21 -41 101 -57 114 -9 8 -21 29 -27 48 -6 19 -15 34 -20 34 -4 0 -17 15
-28 33 -11 17 -36 58 -56 91 -20 32 -36 62 -36 67 0 5 -8 9 -17 10 -10 0 -28
13 -41 30 -21 26 -22 30 -8 45 18 17 21 34 7 34 -5 0 -13 10 -17 23 -4 12 -15
28 -25 35 -11 7 -19 18 -19 24 0 16 -77 89 -91 86 -7 -2 -14 5 -16 14 -3 12 1
15 16 11 12 -3 21 -9 21 -14 0 -5 7 -9 15 -9 22 0 18 18 -5 25 -11 3 -20 11
-20 17 0 9 -36 57 -75 99 -8 9 -15 20 -15 26 0 15 -31 73 -39 73 -4 0 -12 -5
-19 -12 -9 -9 -12 -8 -12 5 0 9 6 17 13 17 7 1 5 6 -5 14 -10 7 -18 17 -18 22
-1 17 -38 54 -54 54 -12 0 -16 -10 -16 -44z"/>
<path d="M10393 7238 c-17 -18 -45 -60 -63 -94 -17 -34 -51 -84 -76 -111 -56
-65 -86 -138 -135 -323 -6 -24 -20 -55 -30 -69 -24 -31 -24 -48 1 -56 12 -4
29 -16 40 -27 19 -20 19 -20 34 17 9 21 16 43 16 49 0 7 7 33 16 59 15 43 19
47 87 76 40 16 84 33 100 36 31 8 57 -8 57 -35 0 -9 9 -25 20 -35 11 -10 20
-26 20 -36 0 -11 14 -26 33 -35 17 -9 36 -23 40 -30 15 -27 27 -14 27 30 0 25
-15 82 -36 137 -35 92 -48 135 -80 253 -15 56 -15 105 2 170 3 15 0 29 -11 40
-22 22 -26 21 -62 -16z m-27 -245 c1 -49 5 -102 9 -119 6 -29 5 -31 -37 -47
-64 -25 -68 -23 -68 27 0 71 19 148 45 188 40 60 50 50 51 -49z"/>
<path d="M1562 7248 c-8 -8 -12 -54 -12 -140 0 -111 2 -128 16 -128 13 0 15
11 13 67 -3 46 0 67 8 70 14 5 33 -36 33 -71 0 -12 6 -30 13 -40 11 -15 13 2
11 108 -1 69 -5 130 -9 136 -9 14 -58 13 -73 -2z"/>
<path d="M1379 7238 c-12 -105 -1 -278 17 -278 10 0 12 14 7 63 -4 51 -2 65
12 77 31 25 50 1 51 -66 1 -40 5 -59 14 -59 11 0 15 117 10 268 0 4 -4 7 -10
7 -5 0 -10 -20 -10 -44 0 -60 -8 -76 -36 -76 -21 0 -23 5 -26 57 -2 34 -8 58
-15 61 -7 2 -14 -2 -14 -10z"/>
<path d="M4612 7221 c-92 -32 -127 -83 -137 -202 -4 -41 -8 -80 -10 -87 -3 -7
-5 -64 -6 -127 -1 -98 2 -121 21 -162 41 -91 58 -118 76 -128 11 -5 28 -18 39
-27 106 -93 113 -98 146 -98 21 0 50 11 74 27 49 33 61 48 76 93 6 19 30 72
52 118 21 46 43 99 47 117 11 49 -5 183 -29 235 -35 77 -157 214 -216 241 -50
23 -67 23 -133 0z m236 -114 c7 -6 23 -31 35 -56 18 -38 21 -64 21 -141 0 -91
-2 -99 -42 -182 -98 -201 -190 -267 -249 -179 -39 58 -46 104 -39 256 4 77 10
157 13 178 8 53 40 96 93 124 38 20 53 23 100 17 30 -3 61 -11 68 -17z"/>
<path d="M11672 7143 c9 -23 8 -41 -2 -77 -15 -55 -45 -87 -111 -120 -41 -20
-59 -23 -104 -19 -46 5 -55 3 -55 -10 0 -26 22 -67 37 -67 7 0 13 -4 13 -10 0
-5 -8 -7 -17 -3 -17 6 -17 5 -1 -12 24 -26 135 -34 144 -11 3 9 10 14 14 11
11 -7 66 49 84 84 8 15 19 60 24 100 11 75 3 121 -24 151 -12 12 -12 9 -2 -17z"/>
<path d="M7276 7151 c-3 -5 -52 -8 -108 -6 l-103 3 85 -13 c207 -32 222 -34
248 -24 21 8 29 7 38 -6 9 -12 13 -13 16 -4 5 15 233 21 261 7 31 -16 8 -27
-54 -27 -58 1 -79 -5 -67 -17 3 -3 58 -6 122 -6 81 -1 124 3 142 12 19 11 27
11 32 3 4 -7 30 -13 57 -13 28 -1 81 -2 120 -3 57 -2 70 1 73 14 3 16 -34 34
-42 20 -7 -10 -86 -1 -86 10 0 6 39 9 88 9 193 -2 238 -3 264 -2 15 1 30 -3
34 -9 3 -6 24 -7 49 -3 42 6 43 5 38 -17 l-5 -24 19 21 c26 31 61 37 74 13 9
-18 7 -19 -15 -13 -16 4 -26 2 -26 -5 0 -12 89 -15 105 -3 6 4 10 13 10 21 0
16 18 20 98 22 31 1 59 5 62 10 12 19 -40 28 -171 29 -76 0 -157 1 -179 1 -22
1 -49 1 -60 1 -11 0 -116 -1 -232 -2 -117 0 -223 -4 -234 -9 -12 -4 -45 -4
-73 1 -28 5 -96 8 -151 7 -278 -3 -343 -2 -382 4 -23 4 -44 3 -47 -2z"/>
<path d="M5138 7113 c-3 -10 -3 -48 -1 -86 2 -37 -1 -84 -8 -105 -6 -20 -15
-102 -20 -182 -4 -80 -11 -184 -15 -232 l-7 -87 38 -56 c21 -30 43 -55 48 -55
5 0 7 16 3 38 -3 21 -1 78 5 127 14 115 15 119 24 252 5 80 11 113 21 117 15
6 25 -10 44 -68 7 -22 36 -85 65 -140 29 -56 65 -132 80 -169 26 -66 89 -172
102 -172 12 0 32 147 32 225 0 41 6 113 14 160 8 47 18 127 22 178 l7 93 -36
54 c-35 53 -49 64 -60 47 -6 -10 -30 -413 -28 -469 3 -67 -18 -66 -55 3 -30
54 -101 227 -117 284 -17 60 -62 154 -90 188 -13 15 -28 37 -35 50 -14 26 -27
28 -33 5z"/>
<path d="M10070 7114 c-25 -8 -92 -25 -149 -39 -62 -14 -111 -31 -121 -42 -10
-10 -32 -65 -49 -123 -32 -105 -65 -206 -96 -290 -9 -25 -20 -76 -24 -113 -7
-66 -7 -69 16 -78 14 -5 34 -9 46 -9 19 0 238 66 307 92 l25 10 -27 23 -27 23
-79 -34 c-43 -18 -91 -36 -108 -40 l-29 -5 -3 75 c-3 110 14 146 82 175 95 39
114 86 31 74 -36 -4 -45 -3 -45 9 0 20 48 160 59 171 4 4 51 19 105 32 139 36
168 49 164 77 -4 28 -21 31 -78 12z"/>
<path d="M5755 6990 c-4 -6 -8 -36 -9 -68 -10 -194 -20 -310 -28 -332 -5 -13
-12 -74 -15 -135 -5 -103 -3 -113 20 -155 18 -33 29 -44 43 -41 25 5 79 4 197
-4 103 -8 108 -6 85 38 -6 12 -14 29 -18 37 -10 20 -43 28 -128 29 -40 1 -83
6 -94 12 -18 10 -20 17 -13 62 4 29 9 79 11 112 3 33 9 64 14 69 5 5 46 3 95
-4 47 -7 89 -10 92 -7 9 9 -31 56 -57 66 -14 6 -41 13 -61 16 -60 11 -62 15
-54 89 8 75 23 97 63 91 95 -15 223 -35 259 -40 l42 -5 -23 50 c-13 28 -25 53
-28 55 -2 2 -35 11 -73 19 -39 9 -108 25 -155 35 -95 22 -156 26 -165 11z"/>
<path d="M9500 6962 c-25 -14 -73 -54 -107 -89 -34 -35 -67 -63 -73 -63 -7 0
-36 18 -67 39 -95 69 -203 77 -203 15 0 -14 -6 -37 -14 -52 -8 -15 -17 -50
-21 -77 -5 -28 -16 -75 -27 -105 -31 -92 -48 -152 -57 -210 -5 -30 -12 -71
-16 -91 -6 -34 -4 -39 32 -65 21 -16 40 -32 41 -36 6 -13 29 -9 41 6 8 9 8 28
1 64 -8 43 -5 68 16 154 14 57 35 129 45 160 11 32 24 81 30 109 6 28 17 53
25 56 8 3 38 -17 70 -46 32 -29 65 -51 77 -51 15 1 45 27 90 80 38 44 75 80
83 80 18 0 18 -37 -1 -74 -8 -15 -15 -38 -15 -51 0 -12 -11 -43 -25 -69 -44
-82 -68 -172 -63 -233 5 -60 18 -75 58 -67 14 3 35 7 47 10 21 4 22 8 20 102
-2 87 1 103 24 152 29 59 89 246 89 274 0 10 7 33 16 52 9 19 15 37 12 39 -2
2 -22 6 -43 9 -31 4 -50 -1 -85 -22z"/>
<path d="M6265 6901 c-8 -14 -4 -87 12 -246 7 -77 18 -182 23 -233 10 -105 42
-172 92 -193 25 -10 31 -8 75 35 l48 45 25 -25 c104 -103 129 -99 166 31 9 33
23 69 30 80 8 11 14 25 14 33 0 7 11 37 24 65 13 29 29 70 36 92 16 51 57 132
70 140 17 10 12 29 -18 64 l-28 34 -43 -72 c-24 -39 -52 -104 -63 -144 -11
-39 -33 -105 -49 -147 -17 -41 -35 -85 -40 -97 -12 -32 -23 -29 -79 18 -52 44
-78 46 -95 7 -11 -24 -41 -46 -50 -36 -10 10 -27 79 -30 123 -1 22 -5 67 -9
100 -3 33 -8 102 -10 153 -3 89 -5 93 -40 137 -38 45 -50 53 -61 36z"/>
<path d="M1751 6868 c-21 -7 -22 -12 -17 -66 4 -31 9 -142 12 -245 4 -137 9
-187 17 -184 8 2 13 38 15 100 2 75 6 97 17 97 22 0 49 -42 70 -109 20 -60 35
-79 35 -42 0 25 -38 143 -50 155 -16 16 -12 25 28 50 39 24 72 77 72 114 0 69
-131 155 -199 130z m88 -47 c11 -11 27 -45 37 -75 23 -73 13 -106 -36 -122
-54 -18 -56 -15 -79 131 -11 66 -3 85 35 85 13 0 33 -9 43 -19z"/>
<path d="M1999 6858 c0 -7 -2 -111 -4 -230 -4 -210 -3 -218 15 -218 19 0 20 8
18 163 0 89 2 192 7 230 7 64 6 67 -14 67 -11 0 -21 -6 -22 -12z"/>
<path d="M1613 6852 c-9 -6 -9 -19 -1 -52 6 -29 8 -115 4 -237 -6 -170 -5
-193 9 -193 12 0 15 16 15 96 0 52 5 126 11 165 8 50 7 89 -1 141 -12 78 -18
91 -37 80z"/>
<path d="M1356 6843 c-17 -5 -18 -12 -12 -116 4 -62 14 -168 22 -237 7 -69 14
-126 14 -127 0 -2 9 -3 21 -3 17 0 20 4 15 28 -11 48 -25 176 -20 183 2 4 25
10 51 14 81 12 134 70 119 130 -18 73 -139 146 -210 128z m104 -49 c55 -30 73
-61 64 -111 -11 -61 -118 -103 -128 -50 -2 12 -9 46 -15 75 -6 30 -11 67 -11
83 0 38 25 38 90 3z"/>
<path d="M1152 6823 c-23 -8 -58 -30 -77 -48 -31 -28 -35 -38 -35 -81 0 -67
24 -101 106 -154 82 -54 134 -98 134 -116 0 -30 -48 -47 -115 -42 -35 3 -66 3
-69 0 -14 -14 35 -31 89 -32 104 0 151 47 125 124 -15 46 -47 71 -110 86 -34
8 -58 22 -76 43 -23 27 -26 38 -22 86 4 45 10 59 36 82 18 16 44 31 59 35 47
10 54 14 48 24 -8 14 -42 11 -93 -7z"/>
<path d="M8008 6789 c-11 -6 -18 -22 -18 -38 0 -16 -9 -48 -20 -72 -11 -24
-20 -58 -20 -74 0 -17 -14 -75 -30 -128 -36 -113 -45 -227 -20 -250 29 -28 84
-37 215 -37 155 0 169 6 132 61 l-23 34 -105 0 -104 0 -3 49 c-2 28 1 59 7 70
20 41 43 112 56 181 8 39 23 98 34 133 l19 63 -24 10 c-32 12 -74 11 -96 -2z"/>
<path d="M7076 6752 c-8 -15 -24 -36 -36 -47 -60 -55 -250 -380 -250 -429 0
-18 39 -76 51 -76 8 0 16 12 63 104 16 31 34 61 41 66 6 5 47 6 95 2 l85 -7
20 -74 c15 -56 27 -79 50 -97 45 -36 57 -32 50 19 -18 144 -24 221 -24 290 0
72 -4 120 -17 204 -4 25 -13 36 -47 52 -56 27 -64 26 -81 -7z"/>
<path d="M7483 6762 c-19 -12 -46 -105 -69 -237 -2 -16 -17 -88 -31 -159 l-26
-129 24 -19 c13 -11 34 -28 47 -39 16 -14 27 -17 40 -10 10 5 65 7 124 4 110
-6 158 0 158 17 0 6 -10 26 -22 46 l-23 35 -110 -3 -110 -3 2 55 c2 30 9 75
17 100 20 61 68 258 74 297 4 29 1 32 -34 42 -46 13 -46 13 -61 3z"/>
<path d="M11776 6423 c-4 -26 -10 -122 -14 -213 -5 -91 -12 -173 -16 -182 -10
-22 -17 -24 -130 -38 -83 -11 -100 -11 -107 1 -6 8 -8 91 -5 191 l4 176 -30
37 c-17 20 -33 34 -35 31 -7 -7 -10 -52 -23 -326 -19 -394 -21 -452 -20 -524
1 -65 3 -72 35 -108 l35 -38 1 87 c0 49 2 99 5 113 2 14 7 67 10 118 4 51 11
95 15 98 9 5 88 21 172 33 45 7 50 6 59 -15 11 -23 -2 -237 -17 -296 -6 -21
-1 -32 23 -57 16 -17 31 -31 33 -31 2 0 4 73 4 162 0 100 5 179 13 207 16 60
34 223 36 336 1 50 6 122 10 160 8 69 8 70 -22 98 l-30 29 -6 -49z"/>
<path d="M11080 6383 c-91 -17 -153 -138 -154 -303 l-1 -95 50 -83 c43 -70 55
-84 86 -92 20 -6 43 -8 51 -5 8 3 39 -1 69 -8 l54 -14 -1 -54 c-2 -111 -53
-178 -134 -178 -55 -1 -87 22 -115 81 -11 23 -25 42 -30 41 -6 -1 -13 -23 -17
-48 -5 -35 -1 -62 18 -117 31 -91 46 -108 97 -108 71 0 115 20 167 77 41 45
51 64 66 128 17 72 17 77 -1 152 -26 106 -53 132 -162 156 -108 24 -114 29
-115 103 -1 67 20 136 62 199 l26 40 78 3 78 3 45 -46 c25 -25 48 -43 50 -41
9 9 -48 106 -88 150 -53 58 -100 73 -179 59z"/>
<path d="M3207 6335 c-7 -13 -12 -172 -15 -476 l-5 -456 57 -43 c32 -23 63
-39 70 -37 10 4 13 50 11 210 -2 112 1 210 5 216 5 9 18 9 51 2 54 -13 129
-14 129 -2 0 16 -44 116 -54 123 -6 4 -34 10 -63 14 -29 3 -57 12 -63 19 -16
20 -1 295 16 302 8 3 73 0 146 -6 72 -6 133 -9 136 -6 5 5 -53 99 -71 114 -13
10 -131 29 -260 40 -72 6 -80 5 -90 -14z"/>
<path d="M10603 6308 c-8 -12 -33 -107 -63 -248 -6 -30 -25 -98 -42 -150 -51
-163 -86 -282 -103 -350 -8 -36 -17 -72 -19 -80 -3 -8 -7 -22 -11 -31 -4 -10
4 -28 19 -47 15 -16 26 -39 26 -50 0 -35 17 -34 23 1 12 73 67 241 85 259 4 3
53 10 109 13 l103 8 11 -29 c6 -16 17 -58 25 -94 10 -51 20 -70 44 -90 16 -14
30 -31 30 -38 0 -7 4 -11 9 -8 11 7 5 73 -20 207 -10 58 -19 130 -19 161 0 30
-6 77 -14 104 -8 27 -17 72 -21 99 -7 56 -20 134 -36 215 -6 30 -13 65 -15 78
-4 22 -76 82 -99 82 -7 0 -17 -6 -22 -12z m81 -391 c28 -154 28 -145 2 -163
-16 -10 -41 -14 -73 -12 -44 3 -48 5 -46 28 1 20 45 179 69 249 10 31 32 -14
48 -102z"/>
<path d="M3730 6274 c-6 -14 -10 -37 -10 -52 0 -15 -4 -43 -9 -62 -5 -19 -12
-159 -15 -310 -3 -151 -9 -316 -12 -367 l-7 -92 54 -50 c29 -27 57 -47 61 -45
4 3 5 18 1 34 -3 17 -1 72 6 123 6 50 13 184 17 297 3 113 9 259 13 325 8 130
6 141 -47 198 -32 34 -40 34 -52 1z"/>
<path d="M4104 6250 c-68 -15 -137 -91 -156 -170 -16 -67 -36 -265 -37 -365 0
-90 7 -141 29 -185 60 -126 97 -184 134 -215 55 -45 78 -53 161 -53 111 0 142
29 170 154 25 118 23 114 66 114 22 0 39 4 39 8 0 16 -60 102 -72 104 -25 2
-33 4 -110 22 -43 9 -82 15 -88 11 -13 -8 8 -53 43 -92 26 -28 29 -37 23 -72
-9 -59 -24 -85 -58 -105 -31 -19 -30 -19 -160 15 -21 5 -49 24 -67 44 -30 34
-31 39 -31 128 1 51 5 124 10 162 6 39 14 105 20 148 11 94 50 162 112 197 34
19 49 22 100 16 75 -7 151 -40 184 -79 34 -41 37 -31 8 28 -60 122 -213 210
-320 185z"/>
<path d="M10132 6213 c-21 -32 -51 -96 -76 -163 -19 -52 -52 -110 -64 -110
-14 0 -67 54 -110 113 -45 60 -113 114 -131 102 -6 -3 -11 -21 -11 -38 0 -18
-7 -57 -15 -87 -22 -82 -31 -420 -15 -560 12 -100 16 -115 38 -134 14 -11 36
-31 49 -43 29 -28 33 -20 22 47 -9 51 -9 480 -1 543 3 15 10 27 17 27 7 0 39
-34 70 -76 32 -41 68 -81 82 -87 22 -10 27 -8 43 13 11 14 36 60 57 103 26 53
43 77 55 77 13 0 18 -8 18 -27 0 -79 32 -483 40 -515 7 -24 21 -43 40 -55 17
-9 30 -24 30 -32 0 -8 3 -11 7 -8 7 8 7 130 -1 237 -13 180 -28 556 -23 590 4
35 2 40 -44 74 -27 20 -51 36 -53 36 -3 0 -13 -12 -24 -27z"/>
<path d="M1820 6181 l-25 -7 3 -150 c1 -82 5 -189 8 -237 6 -77 8 -87 23 -80
9 4 46 8 84 8 56 0 67 3 67 17 0 14 -12 18 -67 20 l-68 3 -9 79 c-9 71 -8 80
9 92 10 8 32 14 48 14 22 0 28 4 25 18 -3 12 -12 16 -29 14 -38 -4 -51 19 -52
95 l-2 68 68 3 c64 3 67 4 67 27 0 24 -3 25 -62 24 -35 -1 -74 -4 -88 -8z"/>
<path d="M2073 6083 c4 -58 7 -164 7 -235 0 -116 2 -129 17 -126 15 3 17 20
17 153 1 83 -3 174 -7 203 -6 40 -5 52 5 52 14 0 36 -36 68 -115 l20 -50 -6
60 c-8 74 -15 93 -49 133 -17 21 -36 32 -52 32 l-26 0 6 -107z"/>
<path d="M1574 6111 c-9 -20 -18 -71 -21 -113 -4 -48 -10 -78 -17 -77 -6 0
-31 40 -55 89 -47 94 -72 117 -116 106 -24 -6 -26 -10 -21 -39 3 -18 10 -72
16 -122 6 -49 15 -103 20 -120 5 -16 11 -65 15 -107 5 -54 11 -78 20 -78 30 0
33 97 5 230 -22 105 -26 170 -10 170 6 0 18 -17 27 -37 9 -21 28 -65 43 -98
47 -102 68 -158 75 -198 4 -21 12 -36 19 -34 19 6 25 76 20 222 -5 149 4 194
28 140 8 -19 14 -91 16 -203 3 -173 3 -173 25 -166 12 3 24 8 26 10 9 8 1 305
-11 380 l-12 81 -38 0 c-35 0 -40 -3 -54 -36z"/>
<path d="M4584 6136 c-3 -8 -1 -48 5 -88 6 -40 9 -104 7 -143 -3 -38 -8 -183
-11 -321 l-6 -251 41 -52 c67 -84 71 -76 74 141 1 119 6 192 13 199 7 7 34 7
94 -1 143 -18 133 -11 125 -83 -21 -206 -25 -301 -11 -320 16 -23 65 -57 81
-57 7 0 13 36 17 93 4 50 11 137 17 192 14 144 12 249 -5 338 -8 43 -15 105
-15 136 0 51 -4 63 -36 104 -19 25 -42 48 -49 51 -20 7 -30 -124 -15 -210 25
-143 25 -134 -4 -134 -49 0 -171 22 -184 33 -10 8 -12 27 -7 73 12 119 -29
247 -95 294 -25 18 -31 19 -36 6z"/>
<path d="M9288 6097 c-63 -20 -122 -70 -147 -123 -21 -43 -23 -59 -18 -134 4
-47 11 -103 18 -125 14 -48 83 -115 119 -115 40 0 203 -50 223 -68 16 -14 18
-26 12 -66 -10 -81 -26 -101 -102 -130 -40 -15 -89 -26 -117 -26 -41 0 -52 5
-80 33 -17 18 -41 46 -52 62 -12 17 -25 27 -29 23 -4 -4 0 -17 9 -30 9 -12 16
-33 16 -46 0 -33 64 -128 99 -147 49 -25 122 -19 206 16 41 17 81 39 89 48 20
23 46 117 46 168 0 39 -5 48 -62 107 -64 64 -135 108 -198 121 -65 12 -69 16
-81 58 -12 45 1 139 27 188 21 42 76 70 147 76 34 3 70 10 80 15 14 7 26 2 53
-22 34 -30 54 -34 61 -14 6 19 -57 81 -115 112 -66 35 -133 41 -204 19z"/>
<path d="M8677 6072 c-24 -38 -31 -119 -33 -357 -1 -153 -7 -274 -13 -295 -13
-41 -6 -50 46 -60 21 -4 46 -11 56 -15 15 -6 17 -1 17 46 0 30 6 77 14 105 7
27 14 93 15 145 2 51 4 155 6 229 1 74 8 148 14 164 6 16 10 31 8 33 -8 8
-126 13 -130 5z"/>
<path d="M5080 6056 c0 -13 53 -92 74 -108 14 -12 39 -18 74 -18 50 0 52 -1
52 -27 0 -16 -4 -44 -9 -63 -10 -45 12 -222 34 -274 15 -35 15 -53 4 -180 -16
-180 -11 -207 44 -247 l42 -31 2 79 c2 43 7 119 13 170 10 80 9 101 -8 175
-32 135 -35 164 -22 256 18 136 13 131 114 125 101 -7 104 -2 56 76 l-30 48
-78 7 c-138 11 -362 19 -362 12z"/>
<path d="M6150 5928 c-1 -2 -3 -66 -6 -143 -3 -77 -10 -189 -16 -250 -7 -60
-12 -175 -12 -255 0 -158 6 -181 61 -231 26 -24 38 -27 138 -33 126 -7 246 5
299 30 44 21 56 56 56 162 0 76 -11 108 -56 168 -31 40 -30 52 4 60 56 14 65
31 57 112 -10 111 -54 192 -147 277 -40 37 -70 55 -114 67 -64 19 -263 45
-264 36z m260 -133 c97 -20 125 -37 164 -98 46 -73 50 -89 26 -119 -27 -35
-71 -41 -193 -28 -158 18 -144 8 -149 96 -3 43 -3 97 0 121 5 42 5 43 43 43
21 0 70 -7 109 -15z m-41 -366 c140 -23 177 -50 188 -137 7 -59 -22 -113 -70
-133 -32 -13 -199 -16 -238 -4 -23 8 -37 138 -20 186 6 18 11 47 11 65 0 31 2
34 32 34 17 0 61 -5 97 -11z"/>
<path d="M8199 5837 c-31 -34 -71 -89 -89 -122 -18 -33 -38 -67 -46 -76 -8 -8
-14 -21 -14 -27 0 -20 -42 -83 -53 -79 -7 2 -12 53 -14 138 l-2 134 -36 33
c-36 33 -65 42 -65 20 0 -22 -11 -712 -11 -736 -1 -12 10 -33 22 -46 13 -12
29 -31 35 -41 22 -39 34 -6 34 98 0 93 2 104 23 127 13 14 36 47 52 73 15 27
34 51 41 54 13 5 53 -32 54 -49 0 -9 6 -16 73 -93 25 -27 50 -67 56 -87 10
-30 23 -43 68 -68 53 -28 83 -37 83 -24 0 7 -44 84 -98 167 -24 38 -71 123
-104 189 -59 115 -61 122 -47 147 8 14 28 51 44 81 16 30 48 80 70 110 56 75
58 83 26 114 -15 14 -31 26 -37 25 -5 0 -34 -28 -65 -62z"/>
<path d="M6972 5873 c-18 -7 -42 -57 -42 -90 -1 -15 -8 -46 -16 -68 -20 -53
-58 -187 -89 -313 -14 -57 -34 -122 -44 -145 -10 -23 -26 -65 -35 -93 l-17
-52 33 -48 c52 -79 60 -78 73 11 7 51 55 167 72 178 6 4 56 4 112 0 117 -7
110 -1 133 -112 11 -55 19 -70 56 -105 54 -51 67 -56 58 -25 -3 13 -13 75 -21
137 -9 62 -28 154 -44 205 -16 51 -33 112 -36 137 -4 25 -23 95 -41 157 -19
61 -34 120 -34 130 0 32 -91 106 -118 96z m91 -369 c16 -54 31 -111 34 -126 6
-33 1 -34 -94 -17 -73 13 -74 14 -42 116 30 98 48 135 62 130 6 -2 25 -48 40
-103z"/>
<path d="M7360 5842 c-19 -9 -45 -32 -57 -51 -22 -33 -23 -42 -23 -238 0 -177
3 -214 20 -272 25 -80 37 -100 117 -184 87 -92 105 -103 151 -89 20 6 53 16
72 22 39 11 79 67 101 139 10 34 9 47 -5 86 -19 49 -36 59 -36 22 0 -37 -47
-121 -79 -140 -33 -19 -131 -23 -177 -7 -16 6 -38 23 -49 38 -19 25 -20 43
-20 257 0 257 2 267 72 315 34 23 37 23 111 11 63 -11 86 -20 129 -52 84 -63
100 -45 34 39 -49 62 -90 87 -172 107 -85 20 -146 19 -189 -3z"/>
<path d="M2254 5520 c8 -63 -8 -65 -40 -4 -11 21 -28 40 -37 42 -15 3 -17 -7
-17 -71 0 -94 10 -167 23 -167 6 0 7 32 2 86 -6 70 -4 85 6 82 13 -4 44 -75
56 -125 6 -26 32 -38 39 -19 3 8 2 61 -3 117 -6 73 -12 104 -22 107 -11 4 -13
-5 -7 -48z"/>
<path d="M1955 5530 c-3 -5 -3 -42 0 -82 4 -40 7 -89 8 -108 3 -53 22 -46 22
8 0 43 2 47 25 47 22 0 26 -5 31 -42 6 -45 14 -61 26 -49 4 3 2 28 -5 54 -6
26 -14 74 -18 107 -4 33 -12 63 -18 67 -16 11 -64 10 -71 -2z"/>
<path d="M8607 5252 c-39 -43 -9 -106 69 -148 l53 -29 25 24 c14 13 28 37 32
54 7 36 -9 53 -88 93 -57 29 -70 30 -91 6z"/>
<path d="M0 5214 c0 -14 57 -74 70 -74 3 0 6 -10 7 -21 1 -12 11 -28 23 -36
14 -10 18 -19 12 -26 -12 -16 9 -55 26 -49 7 2 19 -2 27 -8 12 -10 16 -9 21 4
9 22 34 20 34 -3 0 -24 37 -35 43 -12 3 11 5 9 6 -6 1 -13 7 -23 16 -23 8 0
15 -7 15 -15 0 -8 4 -15 9 -15 13 0 21 -27 15 -45 -10 -24 -24 -17 -30 13 -4
19 -16 32 -37 42 -18 7 -38 21 -44 29 -11 14 -14 14 -23 1 -15 -22 -12 -29 9
-23 13 3 23 -2 30 -16 7 -12 18 -21 26 -21 8 0 15 -5 15 -10 0 -25 45 -70 69
-70 24 1 25 2 9 14 -10 7 -18 16 -18 20 0 12 20 6 40 -11 11 -10 25 -18 30
-18 6 0 11 -4 11 -10 3 -19 40 -38 51 -27 16 16 -19 65 -42 59 -10 -2 -25 4
-34 14 -29 34 -13 55 18 24 18 -18 27 -19 25 -2 -4 34 1 46 19 40 15 -6 15 -4
-2 15 -22 25 -28 28 -20 9 3 -8 -2 -20 -11 -27 -14 -12 -18 -11 -25 1 -7 11
-12 11 -22 1 -17 -17 -38 -15 -38 3 0 8 -4 15 -10 15 -5 0 -10 8 -10 18 0 26
-33 54 -54 46 -11 -4 -16 -1 -16 10 0 9 4 16 9 16 5 0 16 14 25 31 14 28 14
30 0 25 -9 -3 -18 -6 -20 -6 -2 0 -4 -8 -4 -18 0 -27 -10 -33 -32 -21 -14 7
-23 7 -34 -2 -12 -10 -19 -8 -39 11 -13 13 -22 26 -20 30 2 4 -9 20 -25 35
-16 15 -27 32 -24 37 3 5 -3 12 -14 15 -11 2 -25 16 -32 29 -15 27 -30 32 -30
8z"/>
<path d="M11266 5188 c-13 -22 -27 -112 -31 -213 -3 -83 -23 -253 -30 -265 -6
-10 -55 -262 -55 -286 0 -6 18 -16 39 -23 21 -6 42 -18 45 -26 16 -43 40 9 50
110 3 28 9 70 15 95 5 25 14 88 20 140 6 52 17 138 25 190 7 52 17 128 21 169
3 40 9 79 12 86 5 15 -45 45 -76 45 -11 0 -27 -10 -35 -22z"/>
<path d="M2156 5083 c-10 -32 -20 -64 -22 -70 -7 -26 -23 -12 -48 41 -19 40
-33 57 -56 64 -37 14 -38 6 0 -55 29 -49 76 -241 82 -343 2 -32 7 -45 18 -45
17 0 18 45 5 172 -6 57 -5 77 7 95 20 31 68 159 68 181 0 10 -8 17 -18 17 -13
0 -23 -16 -36 -57z"/>
<path d="M1874 5030 l6 -80 -26 -11 c-15 -5 -31 -6 -35 -2 -8 8 -17 73 -18
131 -1 29 -4 33 -23 30 -22 -3 -23 -7 -19 -73 3 -60 7 -75 33 -108 22 -27 35
-36 47 -31 46 19 56 12 59 -46 2 -32 10 -62 19 -72 17 -19 38 -25 28 -8 -9 14
-34 233 -35 298 0 46 -2 52 -21 52 -21 0 -22 -3 -15 -80z"/>
<path d="M10795 5020 c-3 -5 -14 -78 -24 -162 -10 -84 -23 -164 -29 -178 -6
-14 -15 -59 -22 -100 -16 -111 -19 -120 -35 -120 -15 0 -23 19 -40 105 -7 33
-29 100 -50 149 -20 49 -47 118 -60 153 -26 74 -70 132 -87 115 -14 -14 -28
-82 -34 -162 -3 -36 -9 -81 -14 -100 -8 -32 -21 -111 -50 -315 -5 -38 -16
-106 -24 -150 l-15 -80 29 -30 c19 -19 33 -26 39 -20 9 9 31 115 47 229 3 21
11 57 19 80 7 23 16 66 19 98 3 31 9 63 12 72 10 26 31 18 44 -16 6 -18 18
-49 26 -68 7 -19 21 -64 29 -100 50 -204 83 -266 146 -272 22 -3 24 1 27 47 1
28 11 86 22 130 10 44 28 140 40 214 11 73 24 141 29 150 18 34 51 201 47 235
-3 23 -17 48 -39 71 -36 37 -42 40 -52 25z"/>
<path d="M3741 4972 c-70 -12 -158 -117 -194 -231 -29 -93 -23 -225 19 -393
40 -163 55 -192 133 -266 82 -78 100 -89 161 -97 48 -6 60 -3 89 17 46 31 66
66 92 168 26 100 32 110 71 110 37 0 44 19 23 62 -34 66 -46 70 -254 72 -47 1
-61 -13 -38 -36 8 -8 22 -29 31 -47 10 -19 30 -37 48 -43 28 -10 30 -14 25
-48 -6 -50 -27 -89 -57 -112 -22 -16 -32 -17 -85 -7 -33 6 -70 15 -82 21 -48
23 -88 212 -82 388 4 94 7 112 37 175 60 127 122 172 214 155 47 -9 59 -16
106 -70 30 -33 58 -60 63 -60 22 0 -105 173 -149 202 -40 27 -129 48 -171 40z"/>
<path d="M10015 4935 c-22 -8 -40 -15 -41 -15 0 0 -15 -19 -32 -43 -19 -27
-46 -93 -72 -178 -82 -265 -83 -266 -76 -367 5 -86 9 -99 48 -169 24 -42 55
-85 69 -95 34 -26 97 -40 107 -24 4 6 23 23 42 37 92 69 164 177 195 295 8 32
18 113 22 179 5 106 3 129 -17 195 -50 171 -125 228 -245 185z m144 -92 c16
-13 27 -44 42 -118 19 -90 20 -112 11 -212 -7 -72 -18 -128 -32 -157 -11 -25
-20 -48 -20 -52 0 -14 -66 -88 -103 -115 -65 -47 -136 -33 -171 33 -17 31 -17
42 -7 123 22 164 51 257 129 413 28 55 73 92 123 101 4 0 16 -7 28 -16z"/>
<path d="M4364 4883 c-45 -107 -78 -214 -94 -308 -14 -84 -43 -195 -76 -291
-13 -39 -24 -86 -24 -105 0 -19 -4 -49 -9 -66 -9 -30 -5 -38 35 -90 42 -54 44
-55 44 -27 0 37 33 167 55 218 l16 38 61 -6 c100 -12 102 -13 122 -108 27
-129 34 -147 69 -164 18 -9 41 -24 51 -33 18 -15 18 -15 9 4 -6 11 -14 56 -18
100 -3 44 -13 105 -20 135 -8 30 -21 111 -30 180 -9 68 -19 128 -21 132 -7 11
-31 172 -39 258 -7 72 -9 77 -53 123 -25 26 -50 47 -54 47 -4 0 -15 -17 -24
-37z m50 -315 c15 -53 36 -161 36 -187 0 -29 -3 -31 -34 -31 -73 0 -77 12 -50
134 22 96 22 96 34 96 6 0 12 -6 14 -12z"/>
<path d="M4565 4890 c-3 -5 -1 -20 6 -32 23 -43 161 -273 181 -302 20 -27 21
-44 22 -304 l1 -275 40 -22 c21 -13 41 -28 43 -34 2 -6 9 -11 16 -11 13 0 15
58 19 450 l2 135 40 45 c21 25 79 84 127 132 48 47 88 92 87 100 0 7 -21 30
-45 52 l-43 38 -68 -60 c-37 -34 -87 -81 -111 -106 -23 -26 -48 -46 -55 -46
-7 0 -36 35 -64 78 -29 42 -61 87 -73 100 -28 30 -117 74 -125 62z"/>
<path d="M9587 4648 c-3 -221 -6 -265 -26 -348 -13 -52 -25 -132 -28 -176 -4
-79 -4 -82 23 -103 53 -42 65 -29 75 83 9 98 25 207 44 301 8 41 15 145 17
249 l2 179 -39 34 c-21 18 -44 33 -51 33 -10 0 -14 -55 -17 -252z"/>
<path d="M9110 4824 c-30 -8 -72 -26 -93 -40 -67 -44 -106 -163 -78 -237 6
-14 47 -63 93 -109 73 -73 92 -86 158 -111 41 -15 82 -27 91 -27 32 0 69 -40
69 -74 0 -33 -37 -98 -69 -123 -37 -29 -103 -54 -140 -55 -56 -1 -88 24 -118
88 -13 30 -26 54 -27 54 -11 0 -2 -123 11 -160 24 -68 63 -100 121 -100 154 0
272 122 272 282 0 113 -66 175 -225 209 -39 9 -69 22 -87 39 -60 60 -55 172
12 243 34 37 42 41 98 45 71 5 100 -9 170 -81 28 -30 53 -46 75 -50 17 -2 34
-3 36 -1 6 6 -49 76 -88 112 -56 52 -113 89 -156 101 -49 14 -57 13 -125 -5z"/>
<path d="M5794 4770 c-35 -14 -81 -76 -100 -136 -16 -50 -19 -92 -19 -264 0
-256 18 -333 94 -403 17 -16 31 -32 31 -37 0 -9 108 -75 138 -84 10 -4 32 0
48 9 16 8 34 15 41 15 21 0 85 84 119 156 25 54 35 92 43 165 5 52 7 97 5 100
-2 4 -6 37 -9 75 -6 77 -14 101 -58 193 -35 73 -131 178 -189 204 -38 18 -109
21 -144 7z m201 -94 c38 -38 66 -104 86 -200 42 -197 7 -372 -93 -461 -44 -41
-86 -45 -134 -16 -52 32 -59 69 -59 306 0 178 3 219 19 267 26 79 70 117 149
127 4 1 19 -10 32 -23z"/>
<path d="M8540 4763 c-40 -7 -115 -64 -139 -105 -17 -30 -21 -53 -21 -128 l0
-90 56 -63 c31 -34 64 -70 74 -80 19 -21 147 -57 202 -57 20 0 48 -4 62 -10
22 -8 26 -16 26 -47 0 -102 -34 -145 -134 -169 -105 -24 -171 -1 -205 71 -22
46 -27 5 -6 -57 21 -66 50 -104 101 -134 48 -28 64 -29 151 -7 113 28 168 103
167 228 0 40 -7 60 -33 98 -57 82 -80 94 -271 138 -67 16 -75 29 -73 111 1 87
21 138 66 172 43 33 130 44 167 22 14 -9 39 -22 56 -30 17 -8 36 -22 44 -30
13 -16 40 -22 40 -8 -1 13 -64 77 -114 115 -61 46 -153 72 -216 60z"/>
<path d="M6254 4719 c16 -81 27 -481 15 -584 -22 -202 -23 -211 -5 -226 9 -8
28 -25 41 -39 16 -15 28 -21 34 -15 10 11 19 96 27 255 8 161 -3 147 116 152
92 4 108 8 146 33 33 22 45 38 56 76 20 65 8 140 -32 211 -61 106 -124 140
-287 153 -44 4 -89 9 -99 12 -17 5 -18 1 -12 -28z m281 -95 c38 -14 44 -21 53
-57 21 -86 7 -149 -38 -172 -40 -21 -163 -20 -180 1 -14 16 -27 211 -16 239 5
14 17 16 72 11 37 -3 86 -13 109 -22z"/>
<path d="M8020 4731 l-115 -6 -2 -350 c-2 -368 4 -446 40 -500 40 -60 58 -64
217 -45 124 16 190 30 190 42 0 5 -10 23 -21 40 l-22 30 -127 -7 c-181 -10
-174 -16 -168 147 3 71 10 134 14 138 7 7 88 15 193 19 16 1 9 22 -22 68 -20
31 -26 33 -79 33 -31 0 -68 4 -83 10 l-26 10 3 132 3 133 100 6 c55 4 121 7
148 8 26 0 47 6 47 12 0 6 -15 25 -32 44 -39 39 -77 45 -258 36z"/>
<path d="M7307 4722 c-3 -4 -1 -86 4 -182 4 -96 8 -282 8 -412 l1 -238 39 -40
c21 -22 44 -40 50 -40 7 0 12 25 12 68 1 37 5 141 8 232 l6 165 50 3 c28 1 55
-1 60 -5 14 -11 105 -170 105 -183 0 -6 7 -25 16 -41 8 -17 23 -67 33 -112
l17 -81 50 -27 c66 -37 75 -36 68 4 -16 101 -49 200 -101 307 -26 52 -50 103
-55 112 -15 32 -8 45 32 63 54 24 100 77 100 115 0 16 -7 45 -15 65 -8 19 -22
51 -30 70 -16 39 -65 97 -106 126 -19 13 -51 20 -105 24 -215 13 -243 14 -247
7z m310 -132 c23 -10 47 -28 53 -40 19 -36 4 -86 -35 -116 -31 -23 -44 -26
-122 -27 l-88 -2 -1 100 c0 55 2 104 4 109 7 13 143 -4 189 -24z"/>
<path d="M6779 4708 c0 -7 0 -101 2 -208 3 -244 3 -262 -6 -447 l-8 -151 29
-26 c16 -15 39 -35 51 -47 14 -13 23 -16 28 -9 15 24 25 229 16 326 -5 54 -7
103 -5 109 3 6 53 10 127 11 108 0 128 3 158 21 113 71 110 199 -9 333 -49 56
-107 78 -234 90 -125 13 -148 12 -149 -2z m308 -106 c30 -17 72 -77 68 -98 -2
-10 -6 -31 -9 -46 -4 -15 -22 -40 -43 -55 -29 -23 -50 -29 -112 -34 -110 -9
-109 -10 -110 122 -1 61 2 116 5 121 8 13 174 4 201 -10z"/>
<path d="M120 4619 c0 -6 -8 -8 -19 -4 -28 8 -101 -26 -101 -47 0 -10 5 -18
10 -18 6 0 10 -8 10 -17 0 -15 3 -14 18 5 16 21 21 22 45 11 27 -12 39 -36 13
-26 -8 3 -17 -1 -20 -8 -3 -8 -12 -12 -21 -9 -10 4 -15 0 -15 -15 0 -24 -10
-27 -28 -9 -9 9 -12 5 -12 -21 0 -18 4 -30 8 -27 5 3 15 -10 22 -30 12 -30 47
-64 66 -64 8 0 -5 53 -14 60 -11 8 -32 49 -32 62 0 7 11 14 25 14 19 2 25 -3
25 -18 0 -10 -4 -16 -10 -13 -14 9 -12 -19 2 -33 17 -17 25 -15 33 11 14 42
15 57 5 57 -6 0 -10 5 -10 10 0 18 27 10 55 -16 15 -14 30 -23 33 -19 3 3 -2
11 -10 18 -10 7 -18 31 -20 62 -2 37 -9 56 -27 73 -27 25 -31 26 -31 11z"/>
<path d="M11104 4283 c-37 -40 -40 -68 -13 -107 38 -55 94 -79 143 -60 24 9
48 67 44 106 -3 29 -10 36 -57 61 -68 34 -86 34 -117 0z"/>
<path d="M2214 4012 c6 -10 -62 -28 -71 -19 -2 3 -20 1 -39 -3 -21 -5 -46 -4
-64 3 -23 9 -33 8 -42 -1 -9 -9 -7 -12 11 -12 12 0 19 -4 16 -10 -3 -5 -26
-10 -51 -10 -27 0 -44 -4 -44 -12 0 -6 18 -33 39 -59 48 -56 59 -90 37 -112
-9 -8 -16 -24 -16 -35 0 -25 41 -62 68 -62 26 0 28 -12 7 -30 -8 -7 -15 -17
-15 -23 0 -16 51 -67 67 -67 7 0 13 -9 13 -20 0 -11 -5 -20 -10 -20 -19 0 20
-59 48 -74 15 -8 46 -35 69 -60 49 -54 75 -66 151 -67 46 -1 66 -8 102 -32 93
-63 119 -90 152 -156 18 -36 52 -88 76 -116 23 -27 42 -53 42 -57 0 -4 13 -26
28 -50 46 -69 76 -127 69 -134 -3 -3 -19 3 -36 15 -18 13 -36 18 -47 14 -14
-5 -16 -2 -12 15 7 25 -9 30 -18 7 -6 -16 -47 -12 -71 7 -21 17 -34 -2 -34
-50 1 -26 -1 -69 -2 -97 -2 -27 -2 -53 0 -57 3 -6 21 0 88 27 11 5 47 14 79
19 46 9 61 16 67 33 6 17 5 21 -7 16 -16 -6 -18 5 -4 27 7 12 13 10 32 -11 26
-28 98 -143 98 -156 0 -5 13 -24 29 -43 28 -35 91 -140 91 -153 0 -4 -4 -7
-10 -7 -5 0 -19 -9 -30 -20 -31 -31 -27 -96 9 -138 l29 -34 67 7 c55 6 67 5
63 -6 -3 -8 -29 -18 -59 -24 -60 -12 -71 -28 -41 -65 17 -21 22 -22 51 -12 29
10 34 10 38 -7 5 -19 50 -38 61 -26 3 3 -2 19 -12 36 -10 17 -16 32 -14 34 7
7 34 -21 52 -56 l19 -36 -32 -46 c-36 -53 -57 -67 -100 -67 -31 0 -51 -22 -51
-57 0 -10 -9 -29 -20 -43 -15 -19 -22 -22 -28 -12 -10 14 -23 3 -35 -30 -3 -9
-20 -19 -38 -23 -18 -4 -41 -18 -52 -31 -10 -13 -27 -24 -37 -24 -9 0 -23 -7
-30 -15 -15 -18 -50 -24 -155 -27 -71 -3 -80 -5 -84 -23 -2 -11 -23 -38 -47
-61 -25 -23 -44 -49 -44 -61 0 -12 -3 -28 -6 -37 -8 -20 10 -21 29 -1 17 17
32 7 16 -11 -15 -19 -3 -32 36 -40 35 -6 63 -28 48 -37 -5 -3 -31 2 -57 10
-38 13 -52 14 -65 4 -9 -6 -24 -14 -33 -17 -28 -10 -21 -19 15 -19 42 1 86
-15 121 -43 16 -12 39 -22 52 -22 13 0 24 -5 24 -11 0 -8 -15 -10 -45 -7 -25
3 -45 2 -45 -2 0 -3 27 -19 60 -33 33 -15 60 -31 60 -36 0 -10 -345 -9 -355 1
-11 10 20 88 37 93 9 3 19 12 22 20 4 11 -2 13 -27 9 -34 -7 -72 -43 -80 -78
-23 -92 -29 -112 -39 -123 -5 -7 -14 -10 -19 -7 -17 10 -30 -6 -19 -26 7 -13
6 -21 -5 -30 -18 -15 -39 -3 -96 53 -33 32 -41 35 -88 33 -29 -1 -55 2 -57 6
-3 5 -15 3 -27 -4 -12 -7 -30 -11 -39 -10 -9 2 -30 -4 -47 -12 -16 -9 -40 -16
-53 -16 -13 0 -39 -15 -59 -33 -20 -17 -51 -43 -69 -57 -23 -18 -30 -30 -25
-43 5 -11 11 -14 19 -9 16 13 86 22 86 11 0 -23 -73 -189 -84 -189 -39 -1
-109 -102 -127 -182 -16 -74 -34 -65 -24 11 9 63 10 140 4 316 -4 116 13 339
31 400 12 43 21 137 12 131 -16 -10 -52 -94 -70 -166 -20 -79 -34 -94 -52 -60
-12 22 1 78 25 110 17 22 45 102 45 128 0 12 4 21 9 20 11 -4 12 1 5 29 -6 21
-15 23 -66 14 -4 0 -8 -13 -10 -28 -2 -16 -8 -27 -15 -25 -7 1 -18 3 -24 5
-14 2 -40 -88 -32 -109 3 -8 0 -14 -6 -14 -6 0 -11 7 -11 16 0 8 -4 12 -10 9
-5 -3 -10 -28 -10 -55 0 -27 -5 -52 -10 -55 -8 -5 -7 -11 1 -21 6 -8 7 -14 2
-14 -14 0 2 -122 20 -156 8 -16 18 -37 21 -46 4 -14 10 -15 38 -7 41 11 38 12
38 -6 0 -15 -61 -32 -78 -21 -5 3 -15 -1 -22 -9 -17 -20 -38 -19 -42 2 -2 12
-13 17 -38 17 -34 1 -34 2 -46 61 -18 86 -22 187 -7 192 6 2 14 -5 18 -16 7
-22 25 -29 25 -9 0 19 -41 57 -56 51 -10 -3 -12 0 -8 10 3 9 20 19 37 23 41 8
69 33 62 54 -3 8 1 39 9 68 11 44 11 54 0 63 -8 6 -14 23 -14 38 0 26 -18 65
-21 46 -6 -35 -5 -114 1 -105 4 7 9 0 13 -17 5 -28 -11 -49 -26 -34 -5 5 -11
28 -14 52 -10 75 -36 104 -49 54 -3 -14 -9 -25 -11 -25 -12 0 -32 36 -33 58 0
13 -6 22 -15 22 -18 0 -18 -1 -4 -59 5 -24 7 -51 3 -60 -9 -20 -14 -40 -19
-70 -2 -13 -8 -27 -13 -30 -12 -7 -4 -61 9 -61 5 0 9 -7 9 -15 0 -8 -3 -15 -7
-15 -14 1 -43 27 -43 39 0 16 -15 14 -30 -4 -7 -8 -19 -15 -27 -15 -10 0 -13
-6 -9 -16 3 -9 6 -40 6 -70 0 -58 10 -69 28 -29 7 14 20 25 31 25 20 0 31 -34
31 -97 0 -30 2 -33 19 -23 26 14 31 13 31 -5 0 -9 -11 -20 -25 -25 -14 -5 -25
-16 -25 -24 0 -8 -3 -23 -7 -33 -4 -12 2 -9 20 9 14 16 30 28 36 28 18 0 21
-17 6 -30 -13 -11 -12 -15 5 -37 23 -29 26 -53 8 -53 -7 0 -3 -7 9 -15 17 -12
22 -29 28 -94 5 -62 10 -78 21 -74 18 7 18 -2 -2 -32 -13 -19 -15 -57 -15
-216 1 -105 5 -197 10 -203 6 -7 4 -22 -3 -41 -13 -32 -5 -51 48 -112 l19 -23
-69 -2 c-38 -1 -84 -2 -103 -2 -19 -1 -36 -7 -39 -14 -3 -9 29 -11 134 -9
l138 2 -3 -58 -2 -57 1602 0 c1247 0 1600 3 1591 12 -7 7 -12 20 -12 31 0 10
-18 44 -40 74 -22 31 -40 66 -40 77 0 28 -27 66 -47 66 -11 0 -14 6 -10 22 4
15 -3 33 -23 59 -17 20 -30 39 -30 42 0 3 -16 28 -35 57 -19 29 -35 57 -35 64
0 7 -16 31 -35 53 -19 23 -35 47 -35 54 0 7 -12 28 -26 46 -23 30 -25 38 -15
59 9 20 8 26 -4 30 -8 3 -18 3 -24 0 -17 -11 -40 5 -46 34 -4 16 -20 42 -37
59 -33 33 -188 332 -188 365 0 28 -11 43 -33 47 -10 2 -26 17 -35 34 -22 37
-33 53 -54 73 -10 9 -18 23 -18 32 -1 8 -14 26 -30 40 -17 13 -30 27 -30 31 0
14 -63 109 -72 109 -4 0 -6 11 -2 25 5 20 0 31 -22 50 -16 14 -23 25 -16 25 7
0 10 5 7 10 -4 6 -10 8 -15 5 -14 -9 -59 98 -53 127 4 22 1 26 -19 26 -51 1
-71 8 -82 27 -6 11 -17 25 -25 31 -8 6 -11 16 -7 23 4 6 -4 24 -20 40 -14 16
-25 30 -24 32 4 5 -71 142 -81 149 -4 3 -17 24 -29 47 -12 24 -33 53 -46 65
-13 13 -24 31 -24 40 0 9 -16 37 -35 62 -19 26 -35 53 -35 61 0 8 -4 15 -8 15
-5 0 -16 18 -26 40 -10 22 -21 40 -26 40 -5 0 -11 13 -15 30 -4 17 -11 30 -16
30 -5 0 -9 8 -9 18 0 10 -9 24 -20 32 -12 8 -27 26 -34 40 -22 44 -40 72 -63
98 -13 14 -23 31 -23 38 0 8 -10 24 -22 36 -12 12 -22 31 -23 42 0 12 -15 41
-33 65 -18 24 -32 48 -32 54 0 5 -7 15 -16 21 -15 11 -15 15 0 50 22 53 21 55
-24 49 -27 -4 -40 -2 -40 6 0 7 -9 24 -21 40 -11 15 -22 36 -23 47 -2 10 -7
19 -12 19 -19 0 -34 17 -34 36 0 11 -11 35 -25 53 -14 18 -25 36 -25 41 0 4
-11 20 -24 36 -24 28 -27 44 -29 162 -1 43 -15 47 -56 18 -25 -18 -31 -19 -67
-6 -24 8 -43 10 -50 4 -6 -5 -14 -6 -17 -3 -3 4 -18 -3 -33 -15 -32 -25 -42
-26 -63 -7 -12 11 -26 13 -54 7 -20 -5 -37 -6 -37 -2 0 8 85 46 140 62 25 7
56 21 69 31 13 10 30 18 37 18 8 0 14 3 14 8 0 11 -56 34 -77 31 -24 -2 -83
20 -83 33 0 5 13 23 30 41 16 17 27 33 25 35 -4 5 -20 8 -87 18 -21 4 -38 10
-38 15 0 5 -6 9 -14 9 -38 0 -31 56 12 95 15 14 39 25 55 25 24 0 28 4 25 23
-2 14 -11 23 -27 25 -13 2 -21 0 -17 -6z m1209 -2216 c6 -15 10 -16 22 -6 9 7
17 11 19 9 22 -26 96 -133 96 -140 0 -4 11 -25 25 -45 14 -20 25 -45 25 -54 0
-10 7 -20 15 -24 8 -3 15 -11 15 -18 1 -7 14 -29 30 -48 46 -53 41 -60 -47
-60 -98 0 -155 -9 -150 -24 2 -7 45 -11 125 -11 70 0 125 -4 131 -10 17 -17
26 -75 11 -75 -7 0 -10 7 -6 15 15 40 -72 -7 -94 -51 -8 -16 -25 -42 -38 -58
-15 -19 -21 -35 -16 -50 5 -18 4 -19 -8 -6 -8 8 -47 54 -87 102 -46 56 -82 90
-98 95 -15 3 -53 -1 -85 -9 -56 -15 -57 -15 -47 3 5 11 19 19 30 19 27 0 47
20 41 42 -2 10 -8 18 -12 18 -11 0 -11 85 -1 112 9 20 10 17 12 -22 2 -25 2
-55 1 -67 -1 -28 9 -29 39 -4 32 26 28 85 -8 123 -15 16 -32 28 -39 28 -14 0
-60 -89 -56 -107 3 -14 -24 -18 -31 -5 -3 4 8 34 24 67 15 33 28 68 28 78 1
11 7 17 19 15 13 -2 18 5 20 35 2 24 -1 37 -9 37 -7 0 -23 9 -35 21 -18 17
-26 19 -43 10 -16 -9 -21 -21 -21 -53 0 -44 -19 -108 -32 -108 -4 0 -8 -5 -8
-11 0 -11 -45 -76 -65 -94 -26 -24 -77 -187 -62 -201 2 -3 17 16 32 42 26 44
29 46 41 29 8 -10 11 -21 6 -24 -4 -3 -16 -33 -26 -66 -10 -33 -21 -67 -24
-75 -3 -9 5 -5 21 9 21 19 40 24 104 28 43 2 101 2 130 -2 48 -6 57 -12 152
-103 56 -53 101 -103 101 -110 0 -7 -7 -26 -15 -42 -11 -22 -23 -30 -43 -30
l-27 -1 22 -18 c12 -10 19 -21 16 -25 -8 -7 -67 1 -104 16 -20 7 -39 5 -73 -6
-25 -9 -64 -19 -86 -22 -36 -6 -40 -4 -40 14 0 17 12 25 55 38 30 10 55 21 55
25 0 11 -85 21 -122 14 -18 -3 -40 -1 -48 5 -28 18 2 44 68 59 34 8 62 18 62
23 0 4 -41 8 -90 8 -67 0 -97 -4 -116 -16 -32 -22 -41 -12 -20 21 21 32 73 65
104 65 12 0 22 5 22 10 0 17 -65 11 -113 -10 -31 -14 -47 -28 -51 -45 -4 -14
-12 -25 -19 -25 -22 0 -98 108 -104 148 -3 20 -9 42 -13 47 -11 14 -16 58 -7
71 8 13 57 6 57 -8 0 -5 8 -8 17 -6 11 2 19 -6 23 -22 11 -44 27 8 36 114 6
68 -11 114 -43 122 -24 6 -32 38 -13 49 6 4 8 15 5 26 -4 13 -2 19 8 19 8 0
23 11 33 25 10 14 24 25 31 25 7 0 17 9 23 20 6 11 17 20 25 20 9 0 15 10 15
24 0 14 11 33 25 44 14 11 25 26 25 34 0 15 19 38 32 38 4 0 8 -18 8 -40 0
-52 15 -51 65 1 22 22 53 46 70 53 27 11 31 10 51 -13 11 -14 24 -34 27 -45z
m-745 -685 c-2 -47 1 -63 16 -80 27 -30 39 -27 75 24 18 25 36 45 42 45 20 0
7 -47 -24 -81 -45 -50 -66 -60 -91 -43 -29 18 -148 29 -172 16 -16 -9 -10 -11
31 -12 69 0 154 -54 155 -97 0 -16 -32 -17 -48 -1 -16 16 -15 7 4 -30 14 -30
12 -58 -5 -48 -4 3 -5 -9 -3 -25 4 -29 3 -30 -16 -18 -16 10 -24 10 -44 -3
-12 -8 -35 -18 -51 -22 -15 -3 -48 -22 -73 -41 -25 -19 -53 -35 -62 -35 -15 0
-57 -18 -150 -63 -59 -28 -78 -16 -75 47 3 53 -12 62 -22 14 -10 -45 -24 -61
-41 -47 -10 8 -19 1 -39 -31 -30 -48 -27 -75 7 -64 13 4 33 17 45 30 23 25 43
31 43 14 0 -17 -23 -60 -32 -60 -5 0 -20 -7 -34 -16 -18 -13 -22 -20 -13 -30
22 -27 -38 -84 -89 -84 -12 0 -24 -11 -32 -30 -7 -16 -15 -30 -19 -30 -3 0
-16 -3 -28 -6 -14 -4 -23 -2 -23 5 0 18 -44 81 -56 81 -6 0 -19 -17 -30 -37
-30 -59 -46 -73 -80 -73 -21 0 -37 -7 -47 -23 -30 -42 -19 12 16 83 32 65 32
65 75 65 38 1 47 5 75 40 51 63 90 95 114 95 23 0 59 32 68 61 3 9 23 29 45
43 22 14 40 32 40 40 0 7 11 18 24 24 13 6 35 26 48 44 27 36 98 192 98 213 0
25 47 51 153 85 86 27 107 38 109 54 4 29 31 26 38 -4 4 -16 14 -26 28 -28 18
-3 22 1 22 25 0 39 10 73 22 73 6 0 8 -25 6 -59z m1320 -193 c24 -31 24 -59 1
-84 -27 -29 -35 -30 -42 -6 -4 19 -60 37 -78 26 -17 -10 10 -42 42 -49 21 -5
28 -10 21 -17 -14 -14 61 -105 92 -113 11 -4 37 -12 56 -20 19 -7 50 -19 68
-25 41 -16 45 -44 5 -33 -37 10 -87 6 -91 -7 -9 -25 -41 -8 -60 33 -11 24 -27
49 -36 56 -9 8 -16 19 -16 25 0 6 -16 24 -35 39 -29 23 -36 25 -41 12 -4 -8
-1 -22 6 -30 16 -19 0 -19 -27 0 -13 9 -20 22 -17 30 9 23 -12 18 -28 -6 -12
-19 -16 -20 -36 -8 -27 17 -28 29 -1 57 13 14 19 33 17 50 l-3 27 -22 -22
c-13 -13 -25 -23 -26 -23 -2 0 -3 20 -3 45 1 44 2 45 35 45 27 0 32 -3 29 -18
-5 -17 0 -18 46 -14 28 3 64 13 81 23 37 21 50 23 63 7z m-1901 -225 c2 -6 -4
-13 -14 -17 -10 -3 -45 -24 -78 -46 -33 -21 -86 -54 -117 -72 -34 -19 -58 -39
-58 -49 0 -22 -14 -31 -80 -54 -30 -10 -68 -27 -85 -37 -41 -25 -64 -24 -42 0
10 10 17 25 17 34 0 8 13 28 30 44 16 16 30 35 30 42 0 6 5 12 10 12 14 0 13
-4 -10 -45 -11 -20 -20 -38 -20 -40 0 -2 48 25 106 61 58 35 126 75 152 89 26
13 67 40 92 59 45 35 61 39 67 19z"/>
<path d="M2446 3962 c-2 -4 -41 -7 -85 -7 -45 1 -81 1 -81 -1 0 -2 9 -19 21
-38 25 -43 52 -46 90 -10 15 14 32 23 38 20 15 -9 14 -59 -1 -74 -9 -9 -4 -12
24 -12 28 0 42 -7 63 -31 35 -42 31 -80 -10 -93 -42 -12 -76 -29 -71 -34 3 -2
20 1 38 7 45 15 90 1 106 -32 13 -27 32 -28 32 -2 0 8 -14 37 -31 65 -21 34
-29 59 -27 82 3 27 -2 35 -32 56 -21 14 -35 33 -36 45 -3 49 -24 82 -38 59z"/>
<path d="M11207 3910 c-14 -16 -27 -35 -29 -41 -6 -19 -53 -3 -93 32 -58 51
-64 40 -61 -118 2 -92 8 -151 18 -178 15 -40 35 -47 31 -10 -11 88 -13 212 -4
225 9 13 15 13 43 1 18 -8 45 -13 61 -13 l27 1 0 -80 c0 -75 17 -139 38 -139
4 0 9 42 10 93 1 50 5 115 10 144 11 62 4 113 -13 113 -7 0 -24 -13 -38 -30z"/>
<path d="M10839 3923 c-41 -11 -53 -122 -18 -167 11 -14 26 -26 32 -26 21 0
87 -61 87 -80 0 -23 -36 -50 -68 -50 -12 0 -34 11 -47 25 -23 26 -40 21 -29
-9 5 -14 88 -46 119 -46 20 0 46 36 51 71 5 28 1 39 -22 63 -16 15 -46 37 -66
47 -32 16 -38 24 -38 52 0 17 9 47 20 65 21 35 31 36 86 15 33 -12 3 18 -32
33 -34 14 -46 15 -75 7z"/>
<path d="M10497 3899 c-35 -20 -48 -73 -46 -184 1 -123 9 -137 67 -128 39 6
82 37 82 60 0 21 -18 15 -36 -13 -18 -27 -58 -30 -60 -4 -1 8 -8 59 -14 112
-11 87 -11 100 4 123 21 32 37 32 76 -1 23 -20 34 -24 43 -15 29 29 -76 74
-116 50z"/>
<path d="M10312 3885 c-39 -17 -49 -41 -46 -106 3 -59 6 -64 54 -89 42 -21 55
-47 44 -82 -7 -23 -6 -23 14 -4 23 20 37 66 27 95 -3 10 -26 26 -51 36 -56 21
-85 72 -63 111 19 36 38 37 71 4 27 -28 48 -32 48 -10 0 11 -48 60 -58 60 -4
-1 -22 -7 -40 -15z"/>
<path d="M10148 3838 c-9 -18 -24 -51 -33 -73 -10 -22 -32 -71 -50 -110 -40
-87 -49 -115 -36 -115 5 0 15 16 21 35 14 41 13 41 66 49 l41 7 12 -46 c20
-81 30 -40 26 108 -5 182 -14 210 -47 145z"/>
<path d="M9950 3846 c-43 -12 -45 -13 -51 -58 -4 -26 -14 -70 -22 -100 -9 -29
-14 -64 -12 -78 2 -14 7 -42 10 -63 8 -52 25 -37 25 23 0 75 11 93 64 108 55
14 52 32 -5 32 -42 0 -44 4 -33 57 5 27 13 32 65 47 59 16 73 29 43 40 -20 8
-29 7 -84 -8z"/>
<path d="M6541 3816 c-7 -8 -34 -22 -61 -31 -34 -11 -59 -29 -84 -60 -39 -47
-87 -81 -145 -101 l-36 -13 60 0 c76 -1 146 18 179 46 37 33 34 3 -4 -37 -17
-18 -29 -34 -27 -36 8 -8 47 10 52 25 6 19 55 57 55 43 0 -6 -7 -12 -15 -16
-8 -3 -15 -10 -15 -16 0 -13 93 -13 107 1 8 8 19 2 41 -19 37 -36 104 -48 110
-21 2 11 -8 23 -27 32 -26 13 -30 13 -36 -1 -3 -8 -8 -12 -12 -8 -11 11 14 29
44 32 15 2 39 -4 53 -12 26 -16 -20 29 -128 124 -34 30 -65 52 -69 49 -3 -4 2
-9 11 -13 23 -9 20 -24 -5 -24 -17 0 -20 5 -17 32 3 34 -12 47 -31 24z"/>
<path d="M9632 3776 c3 -30 0 -36 -29 -50 -48 -23 -68 -58 -54 -97 9 -26 8
-36 -4 -49 -9 -10 -17 -30 -18 -46 -2 -26 1 -29 31 -32 25 -3 35 -10 43 -29 5
-15 8 -32 5 -39 -8 -20 9 -25 39 -14 23 9 26 15 23 52 -1 27 2 43 11 46 7 2
24 15 39 28 30 26 19 30 -38 13 -21 -7 -50 -9 -64 -5 -28 7 -36 36 -10 36 24
0 82 30 88 45 4 11 -2 13 -22 9 -20 -4 -33 0 -47 16 -26 29 -10 52 44 64 48
10 55 26 11 26 -27 0 -30 3 -30 30 0 17 -5 30 -11 30 -7 0 -10 -13 -7 -34z"/>
<path d="M3415 3774 c-22 -8 -52 -27 -68 -42 -26 -24 -28 -32 -23 -72 16 -119
16 -120 68 -161 56 -44 113 -53 140 -21 23 26 42 92 30 104 -11 11 -74 7 -104
-6 -29 -13 -68 38 -68 89 0 33 6 47 31 71 27 26 37 29 90 28 32 -1 59 2 59 6
0 24 -95 26 -155 4z"/>
<path d="M3723 3770 c-11 -10 -27 -43 -37 -72 -9 -29 -32 -84 -49 -121 l-32
-69 28 -24 c38 -32 59 -30 76 7 7 17 20 33 27 36 27 10 79 -7 89 -28 6 -12 25
-28 44 -35 30 -13 33 -13 26 4 -4 9 -20 64 -37 122 -34 119 -50 150 -89 179
-28 21 -28 21 -46 1z"/>
<path d="M3880 3744 c0 -17 17 -44 54 -82 52 -55 54 -59 55 -117 1 -48 6 -64
24 -82 42 -41 50 -35 48 38 l-2 67 58 45 c84 65 87 69 68 106 -19 38 -31 39
-74 2 -70 -60 -73 -60 -136 -2 -64 57 -95 66 -95 25z"/>
<path d="M9251 3751 c-8 -5 -18 -33 -23 -63 -25 -164 -26 -172 -10 -211 8 -21
16 -36 19 -34 2 2 5 35 7 72 5 74 12 88 47 83 21 -3 25 -11 33 -60 7 -47 12
-58 27 -58 16 0 19 8 19 48 0 26 -5 53 -12 60 -9 9 -7 17 9 34 54 60 57 103 8
124 -38 16 -103 18 -124 5z"/>
<path d="M4365 3726 c-44 -19 -54 -36 -63 -106 -10 -72 -1 -128 31 -185 20
-35 28 -40 62 -43 55 -4 76 14 77 66 1 54 -6 61 -30 32 -22 -27 -65 -22 -82
10 -16 30 0 99 30 133 26 29 28 30 71 19 24 -6 45 -9 47 -8 2 2 -3 20 -12 39
-23 56 -68 70 -131 43z"/>
<path d="M4615 3714 c-26 -26 -54 -89 -61 -136 -3 -23 -10 -58 -16 -75 -7 -23
-6 -44 2 -68 13 -40 40 -47 40 -11 0 58 75 57 127 -3 17 -20 34 -33 38 -29 4
4 -4 53 -18 110 -14 57 -28 119 -31 138 -5 29 -46 90 -61 90 -2 0 -11 -7 -20
-16z"/>
<path d="M9127 3708 c-9 -13 -23 -48 -32 -78 -10 -30 -24 -70 -31 -88 -16 -38
-19 -122 -4 -122 6 0 10 10 10 23 0 50 46 62 79 20 12 -14 24 -24 27 -20 3 3
2 67 -3 143 -8 142 -18 167 -46 122z"/>
<path d="M4815 3698 c-11 -36 -12 -143 -2 -216 10 -73 15 -87 40 -108 32 -27
54 -30 91 -13 20 9 29 9 41 -1 8 -7 17 -11 19 -9 2 2 6 69 7 149 3 140 -5 190
-30 190 -10 0 -33 -147 -31 -193 3 -54 2 -57 -34 -57 -25 0 -39 7 -50 22 -18
25 -20 92 -7 151 6 25 6 50 -1 68 -10 29 -35 39 -43 17z"/>
<path d="M9017 3661 c-15 -27 -27 -62 -27 -78 0 -51 -20 -94 -40 -88 -13 4
-21 -3 -30 -25 -28 -67 -50 -20 -54 116 -2 44 -7 69 -20 83 -30 33 -42 17 -40
-52 2 -77 10 -110 41 -167 34 -62 40 -66 61 -47 23 21 32 21 47 0 22 -30 43 1
51 75 3 37 17 97 30 133 39 107 27 136 -19 50z"/>
<path d="M5123 3673 c-23 -4 -37 -35 -48 -108 -7 -50 28 -195 52 -212 45 -34
113 1 113 56 0 33 -15 49 -24 26 -7 -19 -46 -19 -72 -1 -15 12 -19 25 -17 68
4 88 36 119 94 88 30 -16 25 14 -8 49 -30 31 -54 41 -90 34z"/>
<path d="M8537 3670 c-32 -4 -60 -10 -63 -13 -11 -11 7 -27 29 -27 45 0 48
-10 39 -112 -12 -124 -7 -160 22 -156 20 3 22 12 31 138 l10 135 43 9 c96 22
10 42 -111 26z"/>
<path d="M5311 3647 c-7 -9 -12 -50 -12 -102 -1 -77 2 -93 31 -151 29 -59 34
-64 64 -64 19 0 39 7 46 15 12 14 15 13 35 -5 12 -11 23 -20 26 -20 3 0 6 60
6 133 2 143 -8 200 -35 195 -14 -3 -17 -19 -20 -98 -2 -82 -5 -97 -23 -112
-12 -10 -31 -18 -44 -18 -19 0 -23 7 -29 46 -3 26 -6 66 -6 89 0 24 -6 57 -13
74 -12 27 -16 30 -26 18z"/>
<path d="M5589 3621 c-35 -36 -36 -57 -5 -119 34 -68 49 -78 90 -64 18 7 40
12 49 12 20 0 22 15 5 27 -7 4 -31 13 -53 18 -48 13 -59 44 -23 69 30 21 54
20 89 -5 35 -24 35 -21 8 28 -28 51 -45 63 -92 63 -29 0 -45 -7 -68 -29z"/>
<path d="M8321 3623 c-16 -13 -22 -30 -24 -63 -2 -42 0 -45 34 -61 47 -23 61
-42 57 -76 -2 -23 -8 -29 -35 -31 -35 -3 -43 -16 -17 -26 30 -11 53 -6 83 20
54 45 39 106 -32 133 -26 10 -34 23 -51 79 -6 18 -4 22 16 22 13 0 29 -5 35
-11 14 -14 56 -2 50 14 -6 21 -91 20 -116 0z"/>
<path d="M7378 3570 c-44 -51 -114 -193 -123 -247 -11 -67 20 -54 45 19 13 36
14 36 73 40 32 2 64 0 70 -4 15 -9 48 14 38 27 -5 5 -12 42 -15 80 -8 77 -24
125 -43 125 -6 0 -27 -18 -45 -40z"/>
<path d="M6833 3572 c18 -19 24 -47 8 -38 -4 3 -33 0 -64 -6 -48 -10 -69 -9
-163 11 -93 20 -112 22 -146 10 -31 -10 -43 -10 -66 1 -15 8 -30 16 -34 18 -5
2 -8 -1 -8 -7 0 -5 10 -13 23 -17 12 -3 28 -11 35 -17 20 -16 110 -46 116 -39
3 3 14 -1 23 -9 18 -15 53 -32 85 -43 12 -3 15 -11 11 -22 -5 -14 -1 -15 25
-10 18 4 33 3 37 -3 3 -6 -1 -11 -9 -11 -9 0 -16 -4 -16 -10 0 -5 4 -10 8 -10
5 0 22 -11 38 -25 16 -14 32 -25 35 -25 8 0 59 -47 59 -55 0 -22 -89 14 -132
55 -12 11 -30 20 -40 20 -10 0 -18 5 -18 10 0 6 -9 10 -20 10 -11 0 -20 7 -20
15 0 8 -26 27 -57 43 -32 16 -68 34 -80 40 -53 28 -63 32 -77 32 -7 0 -19 7
-26 15 -7 9 -21 13 -31 10 -13 -4 -19 -1 -19 9 0 12 -10 16 -37 16 -31 -1 -35
-3 -20 -11 9 -6 15 -14 12 -18 -2 -5 36 -25 86 -46 50 -21 111 -48 135 -61 25
-13 50 -24 55 -24 5 0 22 -11 37 -25 15 -14 32 -25 39 -25 7 0 20 -11 29 -24
9 -15 21 -23 30 -19 8 3 25 -3 37 -13 12 -11 40 -28 62 -39 40 -20 55 -33 55
-49 0 -4 -12 0 -27 10 -16 10 -82 46 -148 80 -66 33 -160 81 -210 107 -90 46
-175 73 -175 56 0 -5 7 -9 15 -9 9 0 15 -7 13 -16 -2 -11 11 -23 40 -35 43
-19 43 -18 37 1 -5 17 3 15 54 -16 34 -20 61 -38 61 -40 0 -5 -33 8 -47 18 -7
6 -14 4 -19 -3 -4 -8 1 -19 15 -28 12 -9 37 -28 54 -43 l32 -27 -25 -10 c-14
-5 -18 -10 -10 -10 8 -1 32 -6 54 -12 28 -8 35 -14 27 -22 -13 -13 -15 -31 -2
-22 5 3 12 1 16 -5 3 -5 18 -10 33 -11 37 -1 104 -27 77 -29 -101 -10 -276 21
-395 70 -70 29 -174 84 -200 105 -25 21 -79 46 -188 86 -131 49 -204 53 -250
14 l-30 -25 -20 25 c-11 14 -27 25 -36 25 -20 0 -20 1 0 -46 19 -47 52 -84 74
-84 8 0 31 -14 49 -31 48 -44 77 -61 140 -85 35 -13 60 -29 66 -42 7 -15 15
-20 28 -16 13 4 20 -2 28 -24 12 -36 62 -74 102 -77 30 -2 53 -27 42 -44 -3
-5 -1 -13 5 -16 18 -11 67 5 96 31 16 16 34 24 45 21 11 -3 22 -1 25 5 3 5 16
7 28 4 13 -3 32 1 45 10 15 11 33 14 56 10 18 -4 36 -2 39 3 8 12 74 5 92 -10
8 -6 14 -22 14 -36 0 -13 4 -33 10 -43 12 -22 -16 -80 -38 -80 -10 0 -12 -8
-7 -30 4 -19 3 -30 -4 -30 -6 0 -11 7 -11 15 0 8 -7 15 -15 15 -8 0 -15 -4
-15 -10 0 -5 -5 -10 -11 -10 -6 0 -9 7 -5 15 3 8 1 15 -4 15 -5 0 -12 -9 -15
-20 -3 -11 -17 -23 -31 -26 -17 -4 -24 -13 -24 -31 0 -20 -4 -23 -20 -18 -23
7 -27 -7 -7 -24 10 -8 17 -7 25 1 17 17 14 -3 -4 -27 -12 -17 -16 -18 -24 -5
-7 12 -12 12 -29 -4 -11 -10 -17 -24 -14 -34 5 -12 1 -14 -15 -10 -14 4 -23 0
-27 -11 -6 -14 -8 -14 -20 2 -13 18 -14 17 -17 -5 -2 -16 -10 -23 -25 -23 -11
0 -25 -3 -29 -7 -15 -15 -44 -8 -44 10 0 11 -9 27 -20 37 -11 10 -20 23 -20
30 0 20 -33 51 -75 70 -61 28 -152 125 -117 125 5 0 17 -7 28 -15 26 -20 48
-19 67 3 33 36 16 92 -33 107 -11 4 -27 22 -35 41 -14 34 -45 47 -45 19 0 -8
5 -15 10 -15 6 0 10 -6 10 -13 0 -7 18 -26 40 -43 22 -16 40 -32 40 -36 0 -19
-24 -16 -72 11 -51 28 -103 37 -113 21 -3 -5 -32 -6 -65 -3 l-61 6 11 -27 c16
-44 12 -75 -16 -103 -34 -34 -21 -44 14 -10 16 15 33 27 40 27 15 0 16 16 2
25 -15 9 -12 25 4 25 16 0 29 -27 19 -43 -4 -7 0 -8 13 -2 10 4 27 7 37 7 9 0
17 1 17 4 0 13 -40 45 -59 47 -26 2 -28 27 -3 27 22 0 102 -73 102 -92 0 -8
-7 -24 -16 -36 -14 -20 -14 -22 0 -22 9 0 16 -7 16 -15 0 -17 -14 -19 -40 -5
-13 7 -24 5 -40 -8 -20 -16 -20 -19 -6 -47 l15 -29 10 25 9 24 7 -30 c4 -16 8
-35 10 -42 2 -6 30 -14 62 -16 138 -13 155 -19 177 -60 18 -34 19 -40 6 -50
-9 -7 -23 -23 -31 -37 -21 -32 -117 -79 -127 -62 -8 12 -92 13 -92 0 0 -12
-44 -10 -57 3 -7 7 -17 3 -32 -17 -11 -15 -21 -33 -21 -40 0 -9 -12 -14 -32
-14 -30 -1 -31 -2 -15 -14 18 -14 23 -51 8 -60 -4 -3 -11 -28 -15 -55 -4 -28
-11 -53 -16 -56 -13 -8 -13 -45 0 -45 5 0 18 9 29 21 12 13 21 17 25 10 6 -10
-17 -37 -56 -66 -7 -6 -32 -25 -55 -43 -47 -37 -53 -35 -23 8 27 37 41 78 30
85 -4 3 -18 -7 -29 -23 -30 -43 -91 -165 -91 -183 0 -9 -9 -27 -20 -40 -17
-21 -21 -22 -30 -9 -13 19 -13 30 0 30 6 0 10 10 10 23 0 12 8 34 17 47 25 35
64 120 55 120 -4 0 0 5 8 10 13 9 13 11 0 19 -18 12 -30 5 -30 -19 0 -10 -7
-20 -15 -24 -12 -4 -15 2 -15 28 0 19 -6 36 -12 39 -9 3 -6 18 14 53 29 54 48
144 29 144 -6 0 -11 -1 -11 -3 0 -24 -91 -226 -102 -227 -4 0 -5 21 -1 48 6
43 5 46 -11 33 -14 -12 -21 -9 -51 22 -34 35 -35 40 -32 92 5 62 -7 83 -17 31
-4 -19 -12 -39 -20 -45 -7 -6 -12 -25 -11 -43 2 -33 -39 -136 -60 -150 -17
-13 -35 -9 -35 7 0 9 -6 18 -14 21 -8 3 -14 18 -14 33 2 47 -8 53 -73 46 -60
-7 -119 0 -119 15 0 5 16 14 35 21 46 17 46 43 0 70 -19 12 -35 25 -35 30 0 4
-23 15 -51 23 -65 20 -108 47 -137 86 -13 17 -27 28 -33 25 -12 -8 -12 -62 1
-70 6 -3 10 -17 10 -31 0 -36 -12 -24 -50 53 -35 71 -54 92 -81 93 -8 0 -33 9
-55 19 -34 17 -42 18 -61 6 -19 -13 -22 -12 -27 11 -8 32 -22 23 -31 -19 -4
-17 -14 -45 -22 -60 -14 -28 -15 -28 -33 -12 -11 10 -19 25 -18 34 3 38 -3 61
-16 61 -7 0 -19 15 -27 33 -7 17 -22 48 -34 67 -24 39 -27 87 -6 100 21 13 5
43 -19 35 -14 -4 -20 -2 -20 9 0 10 -17 16 -62 21 -86 9 -143 3 -143 -14 0 -8
39 -38 86 -67 113 -70 149 -110 149 -168 0 -27 -6 -48 -15 -56 -8 -7 -15 -18
-15 -25 0 -16 -96 -26 -145 -15 -28 6 -35 6 -26 -3 20 -20 12 -30 -19 -23 -23
4 -30 2 -30 -10 0 -12 -7 -15 -25 -12 -13 3 -26 0 -28 -6 -3 -7 -11 -5 -24 7
-11 9 -25 17 -31 17 -6 0 -16 8 -21 18 -6 9 -11 12 -11 6 0 -14 -103 2 -108
17 -2 5 -13 9 -24 9 -14 0 -18 5 -13 19 3 12 0 21 -10 24 -8 4 -12 13 -9 20 7
18 -44 33 -59 18 -15 -15 -28 -14 -26 2 4 33 -2 38 -38 35 -22 -2 -38 2 -40 9
-3 7 -11 9 -19 6 -8 -3 -14 1 -14 11 0 9 -7 16 -15 16 -23 0 -112 47 -118 62
-4 10 -7 10 -15 -1 -6 -9 -12 -10 -16 -3 -4 6 -14 8 -22 5 -13 -5 -15 -1 -9
16 6 20 4 22 -16 16 -17 -6 -21 -4 -16 9 8 21 -10 31 -28 16 -13 -10 -16 -7
-21 19 -5 23 -10 29 -17 22 -15 -15 -27 -14 -27 3 0 8 -7 16 -15 20 -8 3 -15
13 -15 21 0 9 -4 13 -10 10 -11 -7 -60 23 -60 36 0 15 -88 99 -104 99 -9 0
-16 3 -16 8 -1 12 -40 55 -46 50 -10 -11 231 -398 248 -398 13 0 99 -82 93
-88 -3 -3 5 -16 17 -29 12 -12 18 -26 14 -30 -4 -5 -16 3 -27 16 -11 13 -23
20 -27 16 -4 -4 -1 -10 6 -12 6 -3 12 -11 12 -18 0 -7 11 -27 26 -44 14 -16
40 -60 59 -96 19 -36 46 -81 60 -99 14 -18 25 -37 25 -41 0 -4 12 -24 27 -44
15 -20 39 -61 54 -91 28 -58 107 -178 141 -214 l21 -21 -7 27 c-3 15 -2 30 4
33 5 3 10 20 10 36 0 16 6 31 13 33 6 2 27 8 45 14 48 15 62 7 62 -38 0 -50
-15 -90 -35 -90 -8 0 -15 -9 -15 -20 0 -10 -9 -24 -19 -30 -26 -13 -31 -13
-31 4 0 19 -19 31 -31 19 -6 -6 -2 -17 8 -29 10 -11 23 -28 29 -39 19 -33 70
-30 93 6 11 19 11 21 -3 16 -26 -10 -18 10 12 31 25 19 27 25 26 91 0 79 1 79
69 60 31 -8 37 -14 37 -37 0 -15 8 -37 18 -48 38 -48 92 -53 92 -9 0 22 22 35
63 35 9 0 50 -33 90 -72 41 -40 97 -94 125 -120 31 -27 48 -49 42 -53 -6 -4
-17 -1 -25 5 -8 7 -15 9 -15 6 0 -9 -92 43 -105 59 -17 21 -50 26 -70 11 -16
-12 -23 -11 -52 5 -40 23 -91 24 -117 4 -11 -8 -37 -15 -58 -15 -36 0 -38 -2
-35 -26 4 -33 27 -48 42 -27 14 19 35 9 35 -15 0 -10 13 -22 31 -29 28 -11 29
-13 17 -34 -11 -18 -11 -22 1 -27 22 -7 46 -40 51 -70 5 -24 10 -27 50 -30 24
-2 64 2 88 9 26 7 47 8 52 3 11 -11 -45 -74 -66 -74 -8 0 -21 -17 -30 -38 -20
-51 -67 -87 -93 -72 -23 12 -61 13 -61 3 0 -5 7 -16 15 -26 10 -14 11 -25 3
-42 -8 -17 -6 -30 5 -51 9 -16 21 -39 26 -51 15 -32 30 -29 38 7 3 17 12 30
21 30 20 0 8 -60 -15 -77 -15 -12 -15 -14 0 -31 9 -10 17 -22 17 -25 0 -4 13
-28 29 -53 20 -33 31 -43 37 -33 4 7 10 67 13 132 6 129 4 124 69 145 32 10
33 10 58 -40 14 -27 24 -52 21 -54 -2 -2 -19 7 -37 21 -19 14 -42 25 -51 25
-10 0 -21 5 -24 10 -9 15 -25 12 -25 -4 0 -8 12 -21 27 -28 16 -8 31 -27 38
-48 6 -19 21 -39 33 -45 19 -8 22 -18 22 -70 l1 -60 16 30 c9 17 18 25 21 17
2 -8 16 -3 42 18 l38 30 6 -25 c9 -35 22 -24 30 25 3 22 11 40 16 40 11 0 11
-3 -16 -122 -17 -79 -31 -108 -21 -43 6 38 -6 46 -23 15 -6 -11 -17 -20 -25
-20 -20 0 -42 -43 -25 -48 7 -3 22 -15 33 -29 20 -22 22 -22 29 -6 4 11 6 -3
5 -32 -1 -37 -6 -50 -17 -50 -16 0 -38 -54 -39 -93 -1 -36 17 -64 38 -57 14 4
17 -1 18 -31 1 -34 1 -35 -18 -18 -20 18 -20 17 -9 -11 6 -16 15 -34 19 -40 5
-5 23 -37 41 -70 18 -33 44 -80 58 -105 14 -25 38 -63 53 -86 15 -23 41 -63
56 -90 15 -27 48 -84 73 -126 l45 -78 52 0 c58 0 64 8 58 72 -2 22 2 41 10 48
7 6 16 33 20 61 4 27 11 49 17 49 6 0 8 -6 5 -14 -5 -13 -12 -68 -21 -159 -2
-15 -6 -30 -9 -34 -13 -12 -7 -23 13 -23 21 0 45 43 36 65 -2 6 2 22 9 36 8
13 11 36 8 51 -3 16 0 42 8 60 10 25 10 33 0 36 -9 3 -8 9 5 23 9 11 15 22 12
25 -3 3 -1 22 4 42 5 20 11 46 13 57 31 157 26 -44 -5 -235 -6 -36 -13 -86
-15 -112 l-5 -48 134 0 134 0 17 55 c10 30 22 55 27 55 10 0 3 -31 -18 -72 -8
-15 -14 -29 -14 -33 0 -3 31 -5 70 -5 67 0 70 1 76 26 4 14 21 48 39 75 18 26
35 54 38 61 2 7 8 10 12 6 4 -4 2 -15 -5 -24 -8 -8 -14 -24 -15 -35 -1 -10 -9
-27 -18 -36 -8 -10 -19 -30 -22 -46 l-7 -27 258 2 259 3 16 45 c26 73 30 84
40 102 5 10 9 23 9 29 0 6 16 43 35 83 19 40 35 79 35 86 0 13 28 66 48 92 8
9 12 23 10 30 -3 7 1 19 9 26 7 7 13 30 13 50 0 20 7 46 15 56 8 11 15 30 15
42 0 12 6 27 14 34 8 6 13 17 11 23 -5 13 39 67 54 67 12 0 25 56 22 98 -2 25
3 38 18 49 15 10 21 25 21 54 0 28 4 39 15 39 8 0 15 5 15 10 0 6 -7 10 -15
10 -12 0 -15 15 -15 71 0 64 -2 70 -19 64 -14 -4 -24 3 -40 30 -11 20 -21 47
-21 61 0 15 -6 24 -15 24 -23 0 -18 19 8 30 12 5 18 9 12 10 -5 0 -4 4 4 9 24
15 2 30 -34 24 -30 -5 -35 -3 -35 14 0 11 -15 40 -33 64 -18 24 -44 62 -57 84
-13 22 -35 55 -49 74 -14 19 -24 43 -23 54 2 10 -1 16 -6 13 -5 -3 -15 1 -22
9 -10 12 -10 18 0 30 7 8 16 13 20 10 5 -3 12 0 15 6 4 5 13 8 21 5 8 -3 11 0
7 10 -9 23 -69 15 -65 -9 3 -15 0 -17 -16 -8 -22 12 -35 38 -26 52 3 5 -2 12
-10 15 -9 3 -13 10 -10 16 8 12 34 -10 34 -28 0 -17 5 -17 28 -3 14 9 28 7 62
-10 54 -26 56 -26 64 1 l7 23 9 -22 c5 -13 15 -23 21 -23 6 0 9 -9 6 -20 -3
-13 0 -20 9 -20 20 0 29 29 16 51 -10 15 -7 18 18 24 21 5 28 11 23 20 -5 7
-6 36 -5 63 4 47 5 49 33 47 16 -1 39 -12 50 -23 11 -12 24 -22 29 -22 5 0 12
-10 15 -23 4 -13 21 -30 43 -40 67 -33 97 -50 104 -61 4 -6 11 -7 15 -2 4 4
-11 25 -34 46 -47 41 -51 48 -27 46 11 -1 21 14 31 48 13 44 16 47 27 30 15
-23 18 -62 5 -69 -14 -9 -11 -25 6 -25 9 0 18 7 22 16 11 30 55 66 74 61 21
-6 26 8 7 16 -8 4 -7 6 4 6 9 1 25 4 35 8 15 6 16 5 5 -9 -21 -27 6 -33 33 -8
18 17 27 19 42 12 10 -6 29 -8 43 -6 14 3 36 -2 50 -10 14 -8 39 -21 57 -30
17 -8 39 -28 48 -45 8 -17 39 -66 68 -108 90 -133 137 -303 137 -499 0 -103
-15 -212 -31 -228 -5 -6 -9 -19 -9 -29 0 -10 -9 -21 -20 -24 -11 -3 -20 -11
-20 -18 0 -16 -26 -27 -68 -30 -40 -2 -86 -34 -90 -64 -5 -30 -46 -49 -119
-54 -7 0 -13 -4 -13 -9 0 -4 -7 -8 -15 -8 -8 0 -15 9 -15 20 0 26 -16 26 -31
-1 -8 -16 -13 -18 -19 -9 -5 8 -19 11 -35 8 -17 -4 -28 -1 -32 8 -6 16 -33 19
-33 5 0 -5 6 -11 13 -14 6 -2 9 -8 5 -12 -4 -4 -17 2 -29 14 -24 22 -69 29
-69 10 0 -8 -5 -7 -15 1 -28 23 -26 3 3 -27 26 -28 31 -30 75 -23 28 4 46 3
45 -2 -2 -5 -7 -9 -12 -8 -9 2 -26 -19 -26 -34 0 -4 9 -6 21 -3 18 5 19 2 14
-22 -4 -20 0 -32 14 -45 12 -11 21 -14 26 -7 8 14 39 -2 76 -40 30 -31 49 -35
79 -19 10 5 26 7 34 4 18 -7 22 -34 5 -34 -6 0 -9 -7 -5 -15 3 -8 -2 -19 -12
-24 -16 -10 -16 -12 1 -41 9 -18 17 -40 17 -50 0 -10 5 -22 10 -25 13 -8 2
-47 -16 -58 -7 -4 -11 -14 -8 -21 3 -7 -4 -28 -14 -46 -14 -23 -18 -43 -15
-70 7 -49 -2 -86 -23 -94 -12 -5 -14 -1 -9 15 6 19 5 20 -14 9 -12 -6 -30 -8
-41 -5 -22 7 -63 -12 -55 -25 3 -4 -4 -6 -15 -3 -23 6 -60 -21 -60 -44 0 -11
81 -13 456 -13 398 0 455 2 444 15 -6 8 -10 22 -8 31 3 15 9 13 39 -14 l37
-32 409 0 c238 0 413 4 419 9 5 5 53 14 108 20 54 6 102 14 107 17 5 3 40 7
79 10 l70 6 0 -31 0 -31 1425 0 c784 0 1425 3 1425 8 0 4 7 117 14 252 8 135
15 306 15 380 2 221 21 185 38 -73 3 -54 9 -100 13 -102 7 -4 157 10 218 21
24 5 30 10 23 17 -6 6 -11 29 -11 52 0 23 -4 45 -9 51 -10 11 15 74 30 74 7 0
9 -11 6 -27 -7 -38 1 -57 19 -42 8 6 14 19 14 29 0 13 6 17 19 13 10 -3 22 0
25 6 4 7 -1 11 -13 11 -23 0 -28 16 -8 23 8 3 6 9 -7 19 -24 19 -12 41 17 32
19 -6 18 -4 -6 26 -31 36 -32 65 -3 65 26 0 31 20 12 47 -20 28 -20 42 -2 35
12 -5 15 12 14 101 0 59 -3 101 -5 95 -3 -7 -11 -13 -19 -13 -17 0 -20 84 -5
124 7 18 6 27 -3 35 -9 7 -12 30 -11 64 2 28 -2 58 -7 64 -6 7 -10 40 -10 73
0 45 -5 66 -20 86 -16 20 -18 28 -8 34 7 4 9 13 5 20 -6 9 -10 9 -16 -1 -8
-12 -11 -11 -19 1 -5 8 -11 18 -12 23 -6 15 -80 20 -119 7 -56 -19 -48 -31 15
-24 52 6 53 6 82 -31 24 -31 64 -123 64 -146 0 -15 -42 5 -56 26 -23 36 -56
46 -100 30 -22 -8 -49 -14 -61 -15 -12 0 -38 -7 -57 -17 -29 -13 -38 -14 -51
-3 -8 7 -15 19 -15 26 0 8 -9 13 -21 11 -14 -1 -24 6 -30 20 -13 35 6 36 41 3
28 -26 38 -30 69 -24 20 4 48 13 62 22 l27 15 -26 50 c-14 27 -37 54 -50 60
-23 10 -23 12 -5 24 15 11 15 15 4 22 -18 11 8 25 64 36 40 7 97 33 103 48 2
4 33 21 68 37 35 17 64 35 64 40 0 5 -7 7 -16 3 -12 -4 -15 -2 -12 8 3 8 21
15 45 17 l40 3 1 55 0 55 -34 -31 c-19 -16 -40 -30 -47 -30 -34 1 -75 68 -79
130 -1 19 -6 38 -12 42 -6 4 -5 12 2 21 7 8 10 21 6 30 -11 29 14 57 51 57 19
0 35 4 35 9 0 6 17 11 38 13 l37 3 3 58 c2 44 0 57 -11 57 -8 0 -20 7 -27 15
-10 12 -9 16 4 21 9 3 16 13 16 21 0 8 -4 11 -10 8 -5 -3 -10 -4 -10 0 0 5 3
12 30 65 6 12 10 63 9 115 -2 108 0 105 -99 112 -90 6 -108 9 -123 22 -11 9
-17 9 -22 0 -5 -6 -19 -9 -38 -5 -16 3 -36 1 -43 -5 -9 -7 -23 -8 -40 -2 -20
7 -37 4 -66 -10 -21 -11 -38 -24 -38 -29 0 -6 -7 -8 -14 -5 -8 3 -25 -5 -38
-18 -13 -14 -29 -25 -35 -25 -7 0 -13 -4 -13 -10 0 -5 -6 -7 -14 -4 -18 7 -98
-45 -90 -58 3 -5 -4 -20 -16 -33 -22 -23 -26 -24 -136 -11 -23 3 -32 -1 -40
-17 -6 -15 -16 -21 -29 -18 -11 2 -58 3 -103 2 -77 -1 -84 0 -89 19 -4 16 -11
19 -27 14 -27 -8 -45 -24 -27 -24 7 0 35 -22 60 -49 60 -63 93 -73 116 -37 22
34 80 38 70 6 -5 -15 -2 -20 12 -20 24 0 43 -19 43 -42 0 -26 -15 -22 -39 8
-16 20 -21 23 -21 10 0 -9 -9 -26 -19 -37 -10 -11 -21 -30 -24 -42 -3 -12 -13
-56 -22 -97 -9 -41 -21 -80 -27 -87 -13 -16 -62 -17 -88 -1 -14 9 -27 10 -47
3 -36 -13 -73 -8 -73 10 0 20 -21 30 -31 14 -6 -10 -9 -6 -9 14 0 19 5 27 18
27 9 0 23 9 30 20 13 21 6 25 -45 20 -21 -1 -27 8 -24 37 1 6 -3 14 -9 18 -12
7 -13 35 -2 35 5 0 20 -9 33 -20 l23 -21 8 21 c9 23 11 24 55 8 34 -12 44 -28
18 -28 -13 0 -42 -38 -33 -44 16 -11 94 -26 111 -20 60 18 91 84 40 84 l-28 0
25 20 c14 10 36 20 50 22 14 2 26 10 28 18 2 13 -15 16 -118 15 -90 0 -123 3
-129 13 -6 11 -10 10 -15 -4 -5 -13 -10 -14 -18 -6 -17 17 20 56 38 41 19 -16
38 -1 23 17 -9 11 -9 21 -1 39 12 27 2 34 -17 11 -11 -14 -51 -25 -101 -29
-14 -1 -28 -9 -31 -17 -6 -12 -8 -11 -15 5 -4 11 -16 32 -27 47 -12 16 -18 36
-15 51 3 17 1 24 -7 21 -17 -7 -28 25 -15 41 7 8 7 15 1 19 -5 4 -5 16 2 31
15 31 70 49 101 33 12 -7 39 -13 61 -16 22 -2 43 -9 47 -15 5 -9 22 -4 60 16
30 15 63 27 76 27 18 0 22 6 22 29 0 57 54 83 65 32 10 -48 55 -68 55 -25 0
28 16 13 31 -28 11 -29 22 -44 36 -46 24 -4 73 38 73 62 0 9 4 16 9 16 15 0
56 133 43 138 -8 2 -9 32 -6 92 l5 89 -26 7 c-29 7 -29 9 -10 99 5 24 1 36
-18 57 -14 15 -27 35 -29 45 -2 9 -13 20 -26 23 -13 3 -24 10 -25 15 -1 6 -18
10 -37 11 -19 0 -44 4 -55 9 -125 49 -130 51 -180 43 -27 -5 -58 -13 -67 -18
-19 -11 -48 -14 -48 -5 0 3 7 16 15 29 l16 24 -67 -4 c-36 -1 -69 -5 -72 -8
-26 -26 -25 40 1 69 13 14 32 20 67 21 46 1 80 16 80 35 0 8 -33 5 -48 -5 -5
-3 -24 -1 -43 4 -84 22 -221 12 -252 -19 -17 -17 -34 -13 -40 8 -4 19 -6 18
-53 -4 -27 -12 -65 -26 -84 -30 -48 -10 -131 -77 -220 -176 -41 -46 -80 -90
-87 -96 -6 -7 -13 -18 -15 -24 -3 -10 -123 -14 -198 -5 -14 1 -34 -2 -44 -7
-31 -15 -99 -18 -124 -5 -18 9 -33 9 -68 0 -24 -7 -66 -12 -93 -12 -68 0 -141
-11 -141 -21 0 -5 86 -7 194 -4 157 4 196 2 205 -9 13 -15 60 -31 76 -26 6 2
44 4 85 6 61 2 72 0 58 -10 -10 -7 -52 -12 -112 -11 -105 1 -109 -1 -99 -60 6
-36 17 -40 63 -22 8 3 33 8 55 12 22 3 50 9 63 12 12 3 22 1 22 -4 0 -11 -44
-33 -65 -33 -7 0 -26 -5 -40 -10 -24 -9 -26 -13 -14 -28 11 -14 11 -15 -1 -4
-17 14 -44 16 -68 3 -9 -6 -30 -13 -45 -16 -20 -4 -27 -10 -23 -21 3 -8 -4
-24 -15 -35 -25 -25 -35 -19 -19 10 20 38 -7 22 -58 -34 -79 -87 -108 -135
-102 -170 l5 -30 24 33 c19 28 28 32 50 27 14 -3 31 -13 38 -22 7 -10 20 -13
34 -10 26 7 49 -1 49 -17 0 -6 10 -31 23 -56 14 -29 22 -63 22 -95 l0 -50 -50
-6 c-27 -3 -63 -11 -78 -17 -25 -11 -27 -15 -21 -48 4 -21 2 -39 -3 -43 -19
-12 -25 -48 -8 -55 11 -4 15 2 15 24 0 21 5 30 16 30 10 0 14 -5 10 -15 -4
-11 3 -19 21 -26 14 -5 23 -13 19 -16 -4 -4 8 -12 26 -17 18 -6 33 -18 33 -26
0 -8 4 -21 8 -27 5 -8 1 -23 -7 -35 -15 -21 -16 -21 -16 -3 0 23 -48 49 -74
39 -20 -8 -20 -13 0 -35 14 -16 14 -18 -3 -27 -10 -6 -53 -13 -96 -17 l-79 -7
7 45 c7 48 -5 68 -30 47 -19 -16 -19 -74 -1 -103 27 -41 46 -168 36 -232 -10
-62 -28 -124 -40 -140 -5 -5 -10 -21 -12 -35 -3 -22 0 -25 25 -22 32 3 36 -13
5 -29 -17 -9 -24 -9 -32 3 -13 17 -36 12 -36 -8 0 -8 -6 -14 -12 -14 -21 -1
-94 -70 -75 -70 19 0 23 -15 6 -26 -6 -3 -15 -1 -19 6 -6 9 -12 9 -31 0 -24
-13 -122 -17 -157 -6 -19 6 -62 66 -62 85 0 5 31 2 69 -6 85 -19 156 -11 172
19 15 28 -4 39 -58 31 -26 -3 -43 -2 -43 4 0 10 21 15 120 30 38 6 50 17 50
49 0 17 -8 23 -40 28 -23 3 -38 11 -35 16 3 5 0 18 -7 29 -9 15 -9 23 1 34 19
24 0 28 -88 17 -89 -12 -105 -8 -96 21 11 34 -3 20 -37 -36 -28 -47 -37 -55
-58 -53 -16 2 -30 13 -38 31 -10 20 -20 27 -43 27 -18 0 -28 4 -24 10 3 6 0
10 -8 10 -19 0 -27 22 -20 51 5 17 3 20 -7 14 -10 -6 -12 -4 -7 9 4 10 7 25 7
34 0 15 1 15 13 0 7 -10 34 -19 67 -22 30 -3 60 -6 65 -6 6 -1 38 6 72 16 59
15 63 19 73 53 18 65 22 62 -94 66 -43 2 -122 -21 -155 -44 -34 -24 -43 -19
-29 17 6 15 14 36 18 47 16 39 17 75 3 87 -8 6 -12 17 -9 25 3 7 1 13 -5 13
-14 0 81 95 106 105 11 5 38 13 60 19 29 8 41 17 43 33 2 16 -2 22 -15 22 -10
-1 -29 3 -42 7 -18 5 -22 4 -17 -5 8 -12 -10 -41 -25 -41 -5 0 -6 14 -2 32 5
27 4 30 -12 25 -10 -4 -24 -2 -32 5 -13 10 -19 8 -37 -13 -20 -25 -64 -49 -51
-29 3 5 1 18 -4 27 -10 17 -10 17 -11 -2 0 -19 -1 -18 -22 3 -18 18 -20 26
-12 40 6 9 20 18 31 20 13 2 23 13 26 30 5 23 15 31 57 44 35 11 60 14 83 8
17 -5 48 -8 67 -8 69 0 80 -2 80 -17 0 -8 9 -15 20 -15 25 0 26 15 3 30 -15 9
-13 10 11 5 18 -4 32 -2 37 6 6 10 14 9 38 -1 18 -7 35 -9 39 -5 4 4 1 10 -5
12 -18 7 -16 24 5 39 16 12 16 15 2 41 -9 15 -31 35 -50 44 -18 9 -37 26 -42
39 -6 18 -13 21 -33 16 -20 -5 -25 -3 -25 14 0 11 -4 20 -10 20 -5 0 -10 -5
-10 -11 0 -15 -52 -2 -66 16 -6 8 -13 12 -16 10 -3 -3 -18 -1 -33 5 -20 8 -34
7 -54 -3 -26 -13 -65 -6 -101 18 -20 13 -53 7 -63 -11 -5 -8 -13 -12 -18 -8
-5 3 -24 -11 -41 -30 -35 -40 -53 -46 -45 -16 6 25 -19 27 -45 4 -14 -13 -21
-14 -32 -5 -19 16 -38 5 -34 -18 2 -10 -1 -20 -7 -22 -5 -2 -12 7 -13 21 -2
14 -10 32 -17 40 -15 19 -28 70 -17 70 4 0 13 -5 20 -12 9 -9 12 -9 12 0 0 7
-6 15 -13 18 -8 3 -12 21 -12 49 1 52 7 61 25 40 22 -26 32 -16 12 13 -11 15
-21 35 -23 46 -2 10 -14 22 -27 27 l-22 8 5 -112 c6 -119 13 -191 22 -214 4
-11 -1 -13 -23 -7 -16 4 -33 11 -38 15 -6 5 -18 9 -28 9 -9 0 -21 7 -26 17 -6
9 -16 14 -25 10 -40 -15 -103 23 -96 59 4 21 -2 44 -10 44 -5 0 -12 -8 -14
-17 -4 -17 -5 -17 -6 0 0 9 -5 17 -11 17 -9 0 -14 -17 -13 -47 1 -7 -5 -13
-12 -13 -15 0 -27 46 -29 119 -1 31 -7 56 -14 59 -8 2 -8 8 0 22 14 21 3 39
-13 23 -9 -9 2 -147 17 -210 5 -17 0 -22 -26 -28 -18 -4 -48 -7 -68 -7 -21 0
-45 -4 -55 -10 -25 -13 -44 5 -45 43 0 18 -5 36 -11 42 -5 5 -7 16 -4 23 7 18
-16 74 -29 74 -6 0 -8 7 -5 15 4 8 2 17 -4 21 -6 3 -8 12 -5 19 2 7 -2 16 -11
19 -24 10 -8 95 23 122 14 13 22 28 18 37 -4 11 8 23 40 42 25 15 46 31 46 36
0 15 -20 10 -47 -11 -14 -11 -31 -20 -38 -20 -20 0 -65 -66 -65 -95 0 -14 -7
-37 -16 -50 -10 -15 -13 -32 -9 -46 7 -19 -6 -38 -26 -39 -13 0 -15 61 -4 78
7 9 15 31 19 47 4 17 13 37 20 45 25 29 26 49 4 52 -12 2 -23 8 -25 15 -3 7 3
9 17 6 19 -5 21 -2 19 23 -4 48 0 64 16 64 8 0 15 5 15 10 0 6 -5 10 -10 10
-6 0 -8 11 -4 26 l7 26 -27 -17 c-14 -10 -26 -21 -26 -26 0 -20 -66 -69 -90
-68 -28 1 -90 -21 -90 -33 0 -4 -6 -5 -14 -2 -11 4 -13 0 -9 -15 6 -25 -4 -27
-28 -5 -15 14 -19 13 -38 -14 -12 -17 -21 -33 -21 -37 0 -15 -36 -51 -47 -48
-7 3 -9 -3 -6 -16 3 -14 0 -23 -11 -27 -9 -3 -16 -12 -16 -20 0 -8 -5 -14 -10
-14 -7 0 -8 -13 -5 -34 4 -19 2 -36 -3 -40 -5 -3 -10 4 -9 17 0 12 -3 30 -7
39 -5 11 0 24 13 37 18 18 30 61 17 61 -3 0 -21 -10 -41 -21 -20 -12 -38 -19
-41 -17 -2 3 16 25 41 50 49 50 61 79 20 52 -13 -8 -28 -13 -33 -10 -5 3 -16
-9 -25 -27 -9 -18 -21 -39 -25 -47 -5 -8 -19 -37 -32 -65 -13 -27 -30 -55 -38
-62 -12 -10 -13 -15 -2 -28 18 -21 50 -19 77 7 13 12 26 18 30 15 9 -10 -38
-57 -57 -57 -9 0 -25 -9 -36 -21 -16 -17 -16 -22 -4 -29 8 -6 18 -10 23 -10
17 0 5 -20 -20 -34 -24 -12 -29 -12 -40 3 -11 14 -12 14 -13 -6 0 -13 -4 -23
-9 -23 -5 0 -9 -16 -9 -35 0 -20 -5 -42 -11 -49 -8 -10 -9 -16 -1 -21 5 -3 10
-17 10 -31 0 -13 4 -24 8 -24 4 0 14 -16 21 -35 7 -19 19 -35 27 -35 17 0 18
-12 2 -29 -11 -10 -10 -15 3 -24 16 -12 16 -14 0 -32 -27 -33 -70 -57 -91 -50
-32 10 -40 38 -34 114 l5 70 -38 18 c-76 36 -98 109 -52 175 22 32 18 48 -27
103 -17 22 -34 49 -36 60 -2 11 -16 26 -31 33 -26 13 -38 42 -17 42 6 0 10 -4
10 -9 0 -5 16 -19 35 -32 19 -13 35 -29 35 -35 0 -6 16 -18 35 -27 41 -19 48
-13 41 40 -2 18 -1 31 3 31 3 -1 16 1 28 5 25 9 79 126 70 154 -16 52 -36 97
-48 111 -8 10 -29 37 -48 62 -43 57 -173 184 -216 210 -18 11 -36 27 -39 35
-3 8 -11 15 -17 15 -8 0 -6 -7 4 -18z m4181 -402 c7 0 36 -21 64 -47 44 -42
51 -56 62 -108 10 -51 30 -126 48 -172 3 -9 -9 -13 -40 -13 -24 0 -60 -8 -80
-18 -23 -12 -42 -16 -56 -11 -12 5 -55 2 -98 -7 -84 -15 -209 -22 -220 -12 -3
4 1 29 9 55 16 50 39 131 42 148 1 6 3 12 4 15 2 3 4 15 5 27 3 30 31 70 64
90 15 10 34 26 42 36 8 10 33 24 55 32 34 12 43 12 62 -1 12 -8 29 -14 37 -14z
m-4094 -193 c84 -42 45 -239 -62 -312 -61 -43 -151 -56 -179 -28 -15 14 -18
27 -13 52 4 18 12 34 18 36 6 2 23 6 39 9 15 4 27 13 27 20 0 8 10 20 23 29
21 14 25 13 45 -10 12 -14 22 -21 23 -16 4 28 -6 61 -23 80 -22 23 -18 53 6
53 7 0 16 7 20 15 9 24 34 18 57 -15 12 -16 26 -27 31 -24 16 10 8 45 -18 70
-25 26 -57 29 -109 10 -15 -6 -13 -2 8 18 31 28 68 33 107 13z m1383 -289 c24
-26 64 -157 74 -245 6 -53 -10 -63 -67 -40 -24 9 -57 13 -88 10 -43 -4 -52 -1
-65 17 -13 19 -17 20 -36 8 -12 -7 -21 -18 -21 -25 0 -16 12 -17 27 -2 9 9 18
4 37 -17 14 -16 26 -32 26 -35 0 -16 -51 -38 -105 -44 -44 -6 -64 -14 -82 -33
-22 -24 -24 -24 -43 -7 -23 21 -27 4 -4 -19 8 -9 11 -16 5 -16 -5 0 -16 7 -25
15 -13 13 -16 13 -30 0 -18 -18 -43 -20 -48 -3 -5 15 -28 1 -28 -17 0 -9 6
-12 15 -9 8 4 15 2 15 -4 0 -5 -7 -13 -16 -16 -18 -7 -44 21 -38 39 2 5 -1 17
-6 25 -9 13 -11 13 -20 0 -13 -20 -13 -8 0 26 7 17 7 31 1 38 -7 8 -6 21 4 38
9 19 10 28 2 31 -7 2 -7 10 -2 23 5 10 9 24 10 30 0 6 8 19 18 28 17 18 21 28
18 59 -1 9 3 17 10 17 8 0 8 4 1 13 -15 18 -4 57 23 83 21 20 24 20 46 4 13
-10 36 -20 51 -24 14 -3 40 -17 56 -31 17 -14 37 -25 45 -25 25 0 31 -20 11
-35 -18 -13 -18 -14 -1 -15 9 0 17 5 17 10 0 6 6 10 13 10 8 0 22 9 32 20 10
11 21 18 25 15 4 -2 23 0 42 5 28 8 38 19 57 60 25 54 27 56 44 38z m-4902
-178 c16 -12 26 -27 23 -35 -8 -19 46 -45 95 -45 22 0 50 -4 63 -9 13 -5 32
-12 43 -16 19 -6 19 -7 -5 -25 -22 -17 -23 -19 -7 -25 9 -4 28 -4 42 -1 27 7
29 3 15 -29 -7 -17 -9 -17 -9 -2 -1 9 -3 17 -6 17 -12 0 -109 -53 -123 -66
-17 -18 -19 -18 -48 5 -13 11 -20 21 -14 23 7 2 4 12 -8 26 -23 26 -37 29 -21
4 7 -11 8 -29 2 -50 -8 -32 -10 -29 -57 84 -43 103 -47 118 -35 140 15 29 14
29 50 4z m5100 -91 c62 -21 154 -146 133 -181 -3 -4 -38 -8 -78 -8 -90 0 -105
-11 -87 -69 14 -47 48 -72 104 -74 l42 -2 -4 -45 c-4 -57 -15 -70 -57 -70 -18
0 -36 -5 -39 -10 -7 -11 -46 -9 -75 3 -8 3 -33 8 -55 9 -33 3 -41 7 -43 26 -2
14 5 33 17 46 12 13 30 47 40 77 11 29 24 55 30 57 6 2 8 14 5 29 -8 32 17
223 29 223 2 0 19 -5 38 -11z m-3736 -141 c4 4 4 -4 0 -18 -12 -51 76 -133
109 -100 6 6 14 5 23 -1 17 -15 16 -27 -2 -45 -21 -21 -19 -40 2 -23 13 11 17
11 20 2 7 -21 30 -15 37 10 4 15 9 18 14 10 8 -12 29 -13 49 0 8 5 8 1 0 -18
-7 -14 -18 -25 -24 -25 -7 0 -22 -9 -33 -20 -11 -11 -24 -20 -30 -20 -13 0
-13 -57 1 -65 15 -10 24 2 11 17 -8 10 -1 14 30 15 22 2 48 -2 59 -8 15 -7 19
-6 19 6 0 8 7 15 15 15 14 0 13 -3 -1 -25 -12 -19 -22 -24 -38 -19 -17 5 -19
4 -8 -7 15 -16 16 -29 1 -29 -6 0 -24 -9 -40 -21 l-29 -21 -25 24 c-14 12 -25
27 -25 31 0 5 -12 22 -27 38 -38 39 -85 122 -137 244 -8 17 -16 46 -20 65 l-6
35 24 -27 c13 -15 27 -24 31 -20z m6435 -93 c0 -19 5 -37 11 -41 6 -4 8 -19 5
-37 -4 -21 -1 -36 10 -49 16 -17 16 -18 -6 -18 -17 0 -21 -4 -17 -20 8 -30
-11 -35 -25 -6 -6 14 -16 26 -22 26 -14 0 -56 44 -56 59 0 6 7 11 15 11 8 0
15 7 15 15 0 18 -17 20 -23 3 -2 -7 -8 -10 -12 -5 -10 9 23 56 51 71 10 6 23
17 27 24 13 20 27 3 27 -33z m-3268 -35 c43 0 135 -37 142 -57 7 -16 -42 -83
-61 -83 -23 0 -43 12 -43 27 0 8 -5 11 -10 8 -9 -6 -90 66 -90 80 0 3 7 5 15
5 8 0 15 -5 15 -11 0 -5 5 -7 11 -3 7 4 2 13 -15 23 -14 8 -26 22 -26 31 1 12
3 12 14 -2 8 -11 27 -18 48 -18z m-897 -205 c35 -20 97 -47 137 -61 89 -32
224 -120 277 -180 21 -24 43 -44 50 -44 6 0 20 18 31 41 l21 40 72 -8 c121
-13 198 -7 268 21 35 14 66 22 70 18 16 -17 62 -168 61 -199 -1 -22 2 -31 10
-27 7 4 8 28 4 68 -5 54 -4 63 13 73 16 10 23 10 36 -4 13 -13 18 -14 25 -3 8
14 34 11 88 -11 27 -11 36 -11 53 -1 27 17 31 12 23 -27 -9 -42 -29 -49 -54
-20 -19 24 -24 19 -21 -21 0 -10 -1 -11 -5 -2 -7 15 -54 16 -54 2 0 -21 36
-47 71 -54 28 -5 40 -13 49 -36 17 -40 38 -38 46 5 6 36 21 44 42 23 9 -9 15
-9 24 0 9 9 7 17 -10 35 -29 31 -28 37 8 27 34 -10 41 4 10 20 -11 6 -20 17
-20 24 0 23 -28 40 -44 27 -11 -9 -16 -9 -22 0 -4 7 0 17 10 24 14 11 15 13 1
19 -19 7 -19 25 1 47 14 16 14 18 -5 29 -37 19 -26 40 23 40 27 0 48 6 56 15
9 11 16 13 24 5 5 -5 17 -10 26 -10 23 0 191 -88 207 -108 59 -77 105 -253
118 -452 3 -52 8 -105 11 -118 l5 -23 27 20 c15 12 41 32 57 46 30 25 30 25 8
31 -26 7 -31 29 -9 37 8 3 24 3 36 0 15 -4 31 4 58 29 86 81 152 106 196 73
19 -14 19 -15 1 -37 -11 -13 -66 -69 -123 -126 -101 -99 -123 -135 -61 -99 17
9 41 17 53 17 13 0 37 5 55 11 40 14 45 9 37 -36 -6 -28 -12 -35 -30 -35 -42
0 -57 -21 -62 -90 -6 -80 -24 -110 -65 -110 -23 0 -34 -7 -51 -36 -28 -47
-102 -102 -147 -109 -20 -3 -43 -10 -52 -14 -14 -8 -125 -16 -178 -12 -21 1
-23 4 -17 39 4 20 10 71 15 113 5 42 14 85 20 97 20 37 14 72 -14 82 -14 5
-25 16 -25 24 0 9 -9 20 -19 25 -23 13 -47 -10 -37 -35 8 -22 -11 -44 -39 -44
-18 0 -25 7 -30 29 -5 22 -10 28 -26 24 -14 -4 -19 -14 -19 -42 0 -20 -5 -42
-12 -49 -16 -16 -59 -15 -57 1 4 31 -23 73 -40 63 -9 -6 -4 -193 5 -208 5 -8
10 -5 14 8 4 10 4 24 0 29 -5 6 -5 26 -1 45 5 26 9 31 14 18 4 -11 12 -15 22
-12 11 5 15 0 15 -18 0 -22 36 -56 47 -44 3 3 7 27 8 54 1 27 5 55 9 61 11 17
25 4 19 -17 -2 -10 3 -24 11 -31 18 -15 21 -41 6 -41 -5 0 -10 -22 -10 -50 0
-36 -4 -50 -14 -50 -8 0 -17 -6 -20 -12 -8 -21 -48 31 -41 53 8 25 -7 24 -30
-1 -10 -12 -25 -18 -32 -16 -10 4 -13 -12 -13 -73 0 -59 -4 -82 -16 -92 -15
-12 -15 -34 1 -72 4 -10 3 -17 -3 -17 -6 0 -23 24 -37 53 -15 28 -34 60 -42
69 -15 16 -15 21 0 55 40 96 58 221 34 241 -11 10 -19 8 -38 -7 -13 -10 -42
-24 -64 -30 -40 -11 -60 -6 -36 9 11 6 10 13 -7 37 -18 25 -19 32 -7 44 14 14
75 232 75 269 0 13 -7 20 -20 20 -18 0 -19 -3 -10 -20 6 -11 7 -20 2 -20 -11
0 -32 -45 -32 -69 0 -11 -16 -33 -36 -50 -26 -23 -34 -37 -29 -51 7 -23 -14
-80 -30 -80 -16 0 -35 22 -35 41 0 9 -7 19 -15 23 -10 3 -15 -1 -15 -14 0 -10
-4 -22 -10 -25 -5 -3 -10 0 -10 8 0 7 -11 24 -25 37 -21 20 -25 21 -31 7 -3
-9 -10 -15 -14 -12 -14 9 -42 -27 -37 -47 5 -17 1 -18 -23 -13 -16 3 -31 2
-35 -4 -3 -6 -13 -11 -22 -11 -8 0 -26 -9 -41 -20 -14 -11 -29 -17 -33 -13 -9
9 -14 321 -5 330 3 3 -4 23 -14 44 -11 21 -20 49 -20 62 0 44 -12 87 -25 87
-23 0 -48 38 -41 65 4 14 2 25 -3 25 -5 0 -13 9 -16 20 -3 11 -11 20 -17 20
-6 0 -3 -11 6 -25 13 -19 14 -29 5 -49 -9 -19 -9 -32 1 -56 9 -21 10 -34 3
-41 -7 -7 -14 11 -23 53 -7 35 -14 65 -16 67 -6 7 -169 59 -176 55 -7 -5 31
-83 48 -99 13 -12 85 -170 120 -265 13 -36 29 -75 36 -87 17 -33 4 -38 -45
-19 -23 9 -53 16 -65 16 -46 0 -93 38 -117 96 -8 21 -13 39 -10 42 2 2 -2 14
-10 26 -8 11 -15 30 -15 41 0 12 -8 39 -19 61 -10 21 -26 62 -35 89 -9 28 -20
59 -25 70 -14 31 -81 168 -91 185 -98 164 -96 160 -82 160 4 0 18 -17 32 -37
49 -73 82 -93 38 -23 -44 69 -57 100 -43 100 2 0 34 -16 70 -35z m-1285 -84
c0 -5 -4 -11 -9 -13 -4 -1 -12 -13 -15 -26 -5 -16 -4 -22 6 -20 7 2 16 7 19
11 4 5 18 -3 33 -18 21 -21 30 -24 40 -16 10 9 15 8 19 -3 8 -21 -13 -99 -32
-116 -21 -19 -22 -71 -2 -87 25 -20 29 -16 36 36 8 62 27 81 43 46 7 -16 8
-26 1 -30 -5 -4 2 -15 16 -26 13 -11 29 -18 34 -15 11 7 33 -18 25 -27 -4 -4
5 -11 20 -16 21 -9 26 -17 26 -46 0 -21 5 -35 13 -35 24 0 41 -18 30 -32 -14
-18 -25 -50 -14 -44 10 7 47 -32 38 -40 -8 -9 11 -44 24 -44 6 0 10 17 9 38
-4 75 5 82 35 25 17 -30 20 -58 21 -157 1 -138 -1 -156 -23 -156 -11 0 -14 6
-10 21 3 12 1 33 -4 46 -9 25 -10 25 -29 8 -12 -10 -20 -13 -20 -7 0 7 5 12
10 12 6 0 8 11 4 25 -4 18 -1 27 10 31 19 7 22 25 4 22 -8 -2 -11 8 -9 30 1
19 -2 32 -9 32 -6 0 -21 11 -34 25 -13 14 -31 25 -40 25 -9 0 -16 6 -16 14 0
13 -29 31 -37 22 -2 -2 22 -32 54 -67 32 -34 52 -59 45 -55 -17 10 -57 -33
-43 -47 7 -7 16 -6 26 3 29 24 15 -7 -20 -43 -19 -20 -35 -42 -35 -50 0 -8 -7
-21 -16 -28 -13 -11 -17 -10 -26 5 -5 9 -42 33 -82 52 -39 19 -98 59 -131 89
-72 65 -170 125 -205 125 -14 0 -46 -11 -72 -25 -55 -29 -93 -33 -84 -9 4 11
-1 18 -14 21 -24 6 -27 23 -4 23 14 0 16 8 11 46 -2 26 -9 49 -15 53 -5 3 -7
21 -5 39 4 26 9 31 24 27 11 -4 19 -2 19 4 0 6 -5 11 -11 11 -21 0 2 19 31 25
31 7 42 25 15 25 -8 0 -15 5 -15 10 0 6 5 10 11 10 6 0 1 13 -10 29 -28 38
-26 44 7 37 15 -3 21 -3 15 0 -19 8 -16 37 7 61 17 19 23 20 49 10 18 -7 33
-21 37 -36 6 -20 8 -22 11 -8 5 21 19 22 27 2 3 -9 0 -17 -7 -19 -40 -12 -47
-17 -47 -31 0 -18 25 -19 68 -4 25 9 37 7 62 -7 16 -10 30 -22 30 -26 0 -4 6
-8 14 -8 8 0 16 -6 19 -12 2 -7 8 -10 12 -6 4 4 -11 19 -34 35 -22 15 -38 33
-36 40 2 6 -3 13 -11 15 -11 2 -8 13 16 46 27 36 29 42 13 42 -17 1 -16 2 3
18 11 10 19 23 17 29 -3 7 8 24 23 38 28 26 44 32 44 16z m5458 -46 c29 -14
56 -25 60 -25 30 0 134 -70 195 -130 l72 -71 52 6 c60 7 76 -6 41 -35 -43 -37
-67 -36 -99 3 -16 20 -39 37 -50 39 -12 2 -30 20 -43 43 -30 54 -69 75 -124
68 -33 -4 -47 -1 -62 12 -16 15 -18 21 -7 33 10 13 9 15 -11 10 -15 -4 -25 -2
-29 8 -3 8 -13 12 -22 9 -24 -7 -56 18 -48 39 8 21 14 21 75 -9z m-6741 -151
c32 -15 85 -37 118 -48 80 -29 82 -47 15 -109 -56 -52 -70 -57 -70 -27 0 10
-15 31 -34 46 l-34 27 21 18 c12 9 18 21 14 26 -5 4 -15 -1 -23 -12 -41 -56
-42 -57 -68 -38 -27 20 -18 43 15 43 22 0 25 15 5 27 -13 8 -33 73 -22 73 3 0
31 -12 63 -26z m2793 -499 c7 -8 18 -15 24 -15 6 0 17 -9 24 -20 7 -11 18 -20
25 -20 7 0 18 -9 25 -20 7 -11 21 -20 32 -20 16 0 20 -7 20 -36 0 -21 8 -47
20 -61 13 -17 20 -41 20 -70 0 -24 -9 -63 -20 -85 -11 -23 -20 -47 -20 -54 0
-22 -21 -26 -41 -8 -10 9 -19 27 -19 38 0 12 -7 34 -15 50 -8 15 -15 41 -15
57 0 16 -5 29 -11 29 -7 0 -9 9 -6 21 3 12 -1 32 -10 45 -14 22 -14 24 2 24
14 0 14 4 -5 30 -12 17 -19 38 -16 47 4 9 -1 21 -13 29 -19 14 -35 54 -21 54
4 0 13 -7 20 -15z m-1594 -211 c16 -20 28 -42 26 -50 -2 -8 4 -14 13 -14 8 0
15 -4 15 -10 0 -13 -6 -13 -40 5 -27 14 -29 14 -32 -7 -2 -15 -15 -25 -44 -35
-22 -8 -50 -22 -62 -33 -12 -11 -26 -20 -32 -20 -5 0 -10 -7 -10 -16 0 -12 3
-14 13 -6 7 6 18 7 25 3 8 -4 24 -6 38 -3 34 6 30 -2 -12 -27 -20 -12 -38 -30
-41 -41 -3 -11 -11 -20 -19 -20 -7 0 -18 -16 -25 -35 -16 -42 -33 -41 -37 3
-2 17 -10 36 -18 42 -12 10 -14 8 -14 -14 0 -33 -18 -33 -56 -1 -16 14 -36 25
-45 25 -46 0 -142 67 -111 77 6 3 12 13 12 23 0 21 21 32 39 20 10 -6 10 -12
2 -28 -15 -28 -14 -42 4 -42 8 0 15 4 15 9 0 5 14 12 30 16 19 4 36 17 45 35
22 43 39 49 30 11 -5 -24 -3 -31 9 -31 9 0 16 6 16 14 0 8 10 18 23 22 12 4
24 9 27 13 8 10 71 41 84 41 20 0 75 56 82 84 8 34 16 33 50 -10z m5329 -269
c21 -8 49 -15 64 -15 47 0 55 -13 32 -50 -16 -27 -21 -30 -26 -17 -3 9 -7 24
-10 33 -8 24 -18 9 -17 -24 0 -17 -7 -33 -18 -40 -16 -10 -22 -7 -40 18 -12
17 -27 30 -35 30 -7 0 -15 10 -17 22 -4 25 -28 37 -28 14 0 -9 5 -25 12 -36
15 -23 4 -38 -16 -21 -11 9 -21 5 -50 -21 -34 -29 -35 -33 -21 -54 12 -19 12
-24 -4 -38 -10 -9 -20 -13 -23 -10 -10 10 -48 -29 -48 -49 0 -15 -5 -18 -22
-13 -13 3 -29 6 -36 6 -7 0 -10 5 -6 11 3 6 0 15 -7 20 -10 6 -11 11 -3 19 9
9 17 8 31 -1 17 -10 23 -9 39 8 21 22 44 59 44 70 0 5 -13 24 -30 42 -29 34
-29 35 -50 16 -19 -17 -21 -17 -39 -1 -22 20 -52 18 -59 -4 -4 -13 -3 -13 11
-2 13 11 19 11 36 0 26 -16 27 -34 3 -47 -20 -11 -62 -4 -62 10 0 5 -6 9 -14
9 -8 0 -16 7 -20 15 -3 8 -12 15 -21 15 -8 0 -15 -7 -15 -15 0 -8 -7 -15 -16
-15 -8 0 -13 -4 -9 -9 3 -6 -4 -15 -15 -21 -26 -14 -25 -27 1 -35 12 -4 32
-19 45 -34 22 -26 23 -26 37 -6 14 19 16 19 34 2 11 -9 30 -17 42 -17 16 0 21
-5 19 -17 -4 -21 -34 -25 -52 -7 -19 18 -26 18 -26 -1 0 -22 -44 -19 -65 5 -9
10 -15 26 -12 35 8 20 -2 19 -24 -1 -10 -9 -25 -14 -34 -10 -20 7 -32 39 -17
44 18 6 15 29 -4 36 -15 6 -15 8 1 26 10 11 26 20 37 20 10 0 18 5 18 10 0 20
-47 9 -69 -17 -21 -23 -25 -24 -33 -10 -11 21 -38 22 -38 2 0 -18 -12 -19 -28
-3 -9 9 -8 16 6 31 16 18 16 20 -3 33 -22 17 -38 1 -29 -29 5 -15 2 -18 -14
-13 -11 4 -23 2 -27 -4 -10 -17 -23 -11 -27 12 -2 12 -9 23 -15 26 -22 6 -27
-27 -8 -48 18 -20 18 -20 -13 -14 -25 5 -32 3 -32 -9 0 -24 -15 -28 -46 -12
-16 8 -39 15 -51 15 -13 0 -23 5 -23 12 0 6 -7 19 -15 28 -14 16 -11 18 41 29
32 6 70 11 85 11 15 0 30 4 33 9 4 5 45 12 94 16 48 3 112 11 142 17 207 38
499 45 575 13z"/>
<path d="M8370 1502 c0 -12 -5 -24 -10 -27 -6 -4 -8 -15 -5 -25 4 -14 -2 -23
-24 -35 -38 -19 -39 -24 -6 -17 23 4 25 2 19 -27 -5 -24 -2 -32 11 -37 9 -4
20 -2 24 4 9 15 61 27 61 13 0 -6 7 -11 15 -11 8 0 24 -6 35 -12 17 -11 22
-10 30 2 6 8 8 26 5 40 -3 14 -1 31 4 39 9 14 -8 71 -21 71 -4 0 -8 -13 -8
-29 0 -32 -20 -54 -42 -46 -8 3 -25 26 -37 49 -27 56 -51 78 -51 48z"/>
<path d="M8170 1290 c0 -8 7 -58 16 -111 15 -85 19 -96 35 -92 11 3 21 -1 25
-11 3 -9 12 -16 20 -16 14 0 17 11 29 83 6 36 18 47 30 27 4 -6 14 -8 23 -6
22 7 47 -9 37 -23 -7 -13 11 -41 27 -41 6 0 8 14 4 35 -6 30 -4 35 13 35 11 0
23 -4 26 -10 10 -16 28 -12 22 5 -4 8 -2 17 2 20 11 6 28 -14 32 -39 7 -38 23
-20 24 28 0 42 -3 49 -23 57 -13 5 -34 6 -48 3 -22 -6 -24 -3 -24 25 0 17 -4
31 -10 31 -5 0 -10 -13 -10 -28 0 -31 -39 -74 -55 -60 -41 34 -74 58 -79 58
-3 0 -6 -13 -6 -29 0 -31 -24 -59 -35 -41 -3 5 -15 10 -27 10 -15 0 -19 5 -16
18 3 10 -3 34 -13 53 -10 19 -18 27 -19 19z"/>
<path d="M11431 3230 c-50 -8 -71 -30 -71 -74 1 -61 -6 -121 -14 -135 -5 -8
-9 -28 -8 -44 0 -17 -4 -39 -9 -49 -5 -10 -10 -43 -10 -74 -1 -32 -6 -57 -13
-60 -10 -4 -18 -60 -20 -139 -1 -16 -7 -36 -13 -43 -16 -17 -16 -29 -1 -38 7
-4 8 -3 4 4 -4 7 -1 12 6 12 8 0 34 20 58 45 24 25 49 45 55 45 5 0 23 10 38
23 20 16 29 33 31 62 2 22 5 40 6 40 1 0 3 12 5 28 2 15 -1 27 -6 27 -5 0 -9
5 -9 12 0 6 3 8 7 5 11 -11 36 34 40 72 6 66 9 79 22 95 7 9 11 24 9 34 -5 17
5 18 159 16 108 -1 168 -5 176 -13 12 -12 15 -12 -145 -15 -49 -1 -92 -6 -97
-11 -6 -6 -4 -33 4 -70 8 -33 15 -74 15 -92 0 -17 4 -34 8 -37 5 -3 7 -25 6
-50 -3 -39 0 -46 16 -46 23 0 35 16 18 24 -7 3 -3 3 9 0 38 -9 46 6 18 31 -31
30 -31 35 1 35 14 0 23 -4 19 -9 -5 -9 36 -61 48 -61 3 0 3 10 -1 22 -5 21 -5
21 21 2 15 -10 27 -22 27 -26 0 -4 26 -12 58 -19 31 -7 61 -16 67 -21 30 -27
34 -8 34 201 1 208 0 210 -22 217 -23 8 -43 7 -67 -4 -8 -3 -76 -7 -150 -8
-141 -2 -183 -7 -188 -24 -4 -12 -32 -14 -32 -2 0 5 3 12 7 16 4 3 7 14 8 24
1 9 5 32 9 50 l8 32 -49 -1 c-26 -1 -68 -5 -92 -9z"/>
<path d="M3879 3057 c-11 -8 -16 -31 -18 -74 -1 -58 0 -62 30 -83 25 -18 35
-20 52 -12 12 6 32 14 45 17 18 5 22 13 22 46 0 21 -4 39 -8 39 -13 0 -39 -23
-45 -40 -3 -8 -6 11 -6 42 -1 46 -5 59 -20 68 -25 13 -32 12 -52 -3z"/>
<path d="M9008 3045 c-3 -3 -57 -12 -119 -20 -63 -8 -123 -17 -134 -19 -11 -3
-65 -6 -120 -7 -109 -2 -125 -5 -125 -23 0 -13 47 -66 59 -66 5 0 11 7 15 15
3 8 10 15 16 15 5 0 10 -7 10 -15 0 -10 10 -15 28 -15 15 0 33 -5 40 -12 8 -8
15 -8 25 0 21 18 124 27 141 12 8 -6 19 -9 25 -6 8 5 69 -6 169 -31 19 -5 22
-1 23 28 0 19 2 50 4 69 5 42 -12 80 -35 80 -9 0 -19 -2 -22 -5z"/>
<path d="M2340 2784 c0 -15 -35 -37 -62 -39 -25 -2 -31 -10 -30 -42 0 -15 -5
-31 -11 -35 -6 -3 -12 -17 -14 -30 -2 -13 -14 -33 -28 -45 -14 -12 -25 -27
-25 -33 0 -5 -4 -10 -10 -10 -5 0 -10 -6 -10 -14 0 -8 -11 -17 -25 -20 -22 -6
-24 -9 -15 -27 12 -22 -2 -49 -25 -49 -17 0 -26 -50 -14 -73 12 -20 4 -37 -17
-37 -15 0 -19 -21 -7 -34 12 -12 11 -76 -1 -76 -16 0 -46 -37 -46 -55 0 -9 -6
-18 -14 -21 -8 -3 -17 -26 -21 -50 -5 -34 -13 -49 -33 -62 -21 -13 -27 -24
-26 -50 1 -18 -3 -35 -7 -38 -5 -2 -4 -17 2 -31 9 -23 6 -29 -17 -48 -19 -15
-25 -26 -18 -36 4 -8 7 -27 5 -43 -3 -26 -1 -28 21 -21 12 4 43 9 68 12 44 4
45 4 24 -14 -19 -17 -19 -20 -5 -46 15 -26 27 -36 89 -68 28 -16 28 -23 -4
-37 -33 -16 -72 1 -54 23 9 11 6 20 -17 39 -15 14 -43 30 -61 37 -36 12 -122
4 -122 -11 0 -9 79 -27 89 -21 15 10 37 -90 24 -112 -2 -4 -14 0 -26 8 -23 16
-47 20 -47 7 0 -5 16 -29 34 -53 32 -40 34 -48 26 -82 -8 -36 -7 -38 21 -44
34 -6 34 -7 44 -50 l7 -33 -36 15 c-63 27 -63 14 1 -50 l48 -47 -35 -28 c-36
-29 -37 -47 -1 -35 11 3 48 26 81 51 33 24 82 50 108 56 26 7 63 23 82 35 22
15 50 23 76 23 77 0 224 65 224 100 0 17 -17 11 -48 -15 -38 -32 -62 -40 -150
-54 -41 -6 -111 -28 -165 -52 -127 -56 -127 -56 -129 -28 0 13 -2 29 -2 36 -1
6 -9 20 -19 30 -9 11 -17 23 -17 28 0 5 -8 27 -19 49 -24 52 -44 134 -35 147
8 14 44 -19 44 -41 0 -12 6 -16 23 -13 21 4 22 1 24 -59 3 -100 13 -168 26
-168 19 0 75 49 56 50 -11 0 -19 16 -25 54 -9 48 -8 57 10 82 16 21 17 29 7
32 -7 2 -22 13 -33 24 -24 24 -11 43 24 35 17 -5 32 -26 58 -88 19 -44 34 -87
32 -95 -4 -18 -1 -18 45 2 56 24 75 32 101 39 27 8 28 25 3 54 -38 44 0 161
53 161 8 0 15 10 17 23 4 22 -6 410 -15 587 -3 52 -5 167 -6 255 -2 220 -8
272 -31 278 -12 3 -19 0 -19 -9z"/>
<path d="M5536 2621 c-3 -5 -21 -16 -41 -25 -27 -13 -39 -14 -55 -6 -17 9 -26
7 -47 -9 -30 -25 -56 -27 -73 -6 -7 8 -16 12 -21 9 -16 -10 -9 -43 11 -54 11
-6 20 -9 20 -6 0 3 19 -4 43 -14 46 -21 97 -26 97 -9 0 15 -30 43 -38 35 -3
-4 0 -11 8 -16 20 -12 5 -24 -17 -15 -10 5 -24 9 -32 9 -22 2 -24 24 -4 34 10
5 38 10 62 11 24 0 50 6 57 12 20 16 56 -11 51 -38 -4 -24 7 -28 51 -17 l23 7
-21 19 c-11 10 -20 23 -20 28 0 18 18 10 38 -15 21 -26 58 -32 97 -15 18 8 18
9 2 9 -16 1 -18 7 -12 40 l6 38 -53 -2 c-29 -1 -61 -6 -70 -10 -9 -3 -26 -2
-37 4 -11 6 -22 7 -25 2z"/>
<path d="M5787 2624 c-3 -3 -3 -12 0 -20 3 -8 -4 -25 -16 -38 -19 -20 -20 -24
-7 -29 9 -4 13 -13 10 -22 -4 -10 0 -15 15 -15 12 0 22 3 22 8 6 36 5 59 -4
70 -5 7 -7 15 -4 19 10 10 37 -18 37 -38 0 -24 43 -42 81 -34 15 4 35 17 44
31 15 24 15 26 -7 44 -17 14 -38 19 -84 18 -34 -1 -66 2 -71 5 -6 4 -13 4 -16
1z"/>
<path d="M2620 2547 c0 -15 -31 -31 -83 -43 -32 -7 -42 -34 -41 -110 0 -45 19
-114 31 -114 9 0 42 45 43 57 0 6 4 13 8 15 4 2 17 17 29 33 24 35 110 81 168
91 54 9 65 17 35 25 -51 14 -138 9 -185 -11 -51 -22 -85 -26 -85 -10 0 6 13
10 28 10 20 0 35 9 50 29 13 18 18 32 12 36 -6 3 -10 0 -10 -8z"/>
<path d="M9249 2498 c-5 -15 -3 -60 2 -64 4 -2 5 -13 2 -25 -4 -14 0 -22 14
-25 19 -5 53 -61 53 -88 0 -14 31 -46 44 -46 5 0 6 6 3 14 -4 10 3 13 26 11
19 -1 32 -8 33 -16 3 -43 5 -49 13 -49 5 0 18 19 30 42 l21 42 -22 24 c-21 21
-23 22 -35 6 -7 -9 -19 -14 -28 -11 -18 8 -19 46 -1 69 12 16 16 15 55 -18 23
-20 44 -34 47 -31 13 12 -9 47 -41 66 -34 20 -45 44 -25 56 6 3 10 14 10 24 0
14 -9 9 -42 -21 -45 -41 -96 -71 -108 -63 -4 3 -13 27 -20 55 -7 27 -16 50
-21 50 -5 0 -9 -1 -10 -2z"/>
<path d="M2810 2240 c-14 -4 -40 -10 -59 -15 -32 -8 -33 -9 -15 -22 16 -11 17
-17 6 -33 -11 -19 -10 -20 11 -15 16 4 29 -1 47 -19 25 -28 83 -39 61 -12 -15
18 4 26 42 19 20 -4 27 -1 27 11 0 19 -35 34 -97 43 -64 9 -52 19 21 19 54 -1
69 -5 92 -26 15 -14 25 -19 22 -10 -11 34 -110 72 -158 60z"/>
<path d="M2558 2193 c-14 -13 -20 -14 -32 -3 -14 11 -16 9 -18 -11 -4 -66 8
-119 27 -119 10 0 12 9 8 36 l-6 36 28 -26 c18 -16 39 -26 59 -26 26 0 35 6
50 35 11 19 17 36 15 38 -2 2 -19 15 -37 30 -38 31 -70 34 -94 10z"/>
<path d="M9212 2077 c-40 -9 -43 -12 -40 -40 2 -18 13 -37 28 -48 31 -23 90
-36 90 -20 0 6 -8 11 -17 12 -13 0 -11 3 7 10 14 6 41 9 60 7 41 -3 44 11 6
30 -30 15 -35 37 -6 29 11 -3 22 -1 25 3 6 10 -59 31 -90 29 -11 -1 -39 -6
-63 -12z"/>
<path d="M1267 1999 c-31 -26 -37 -37 -36 -67 0 -21 -2 -49 -6 -63 -5 -21 -2
-29 22 -44 15 -9 35 -26 44 -37 14 -18 23 -19 67 -13 46 6 52 10 52 31 0 14
11 32 30 46 27 19 29 24 17 42 -8 12 -17 36 -20 55 -11 52 -21 59 -76 54 -39
-3 -50 -1 -53 12 -2 12 -11 9 -41 -16z"/>
<path d="M2613 1950 c-50 -59 -43 -83 9 -33 26 25 28 25 28 6 0 -11 -9 -32
-21 -47 -32 -40 -22 -59 36 -69 30 -5 64 -5 85 1 34 10 105 9 166 -3 37 -6 69
19 43 36 -8 5 -20 9 -26 9 -7 0 -13 4 -13 9 0 5 -10 9 -22 10 -100 3 -116 5
-126 22 -16 25 -8 40 35 69 28 19 32 26 19 28 -9 2 -23 -1 -30 -7 -8 -7 -23
-7 -47 -1 -69 20 -101 13 -136 -30z"/>
<path d="M661 1869 c-41 -5 -76 -11 -79 -14 -3 -3 0 -16 6 -30 7 -14 12 -33
12 -41 0 -8 10 -28 22 -44 21 -29 21 -30 2 -51 -10 -12 -41 -32 -69 -46 -27
-14 -52 -27 -55 -30 -5 -5 -9 -54 -14 -168 -2 -44 -4 -86 -5 -92 0 -7 -12 -13
-25 -13 -27 0 -42 -15 -26 -25 6 -4 18 -1 27 6 13 11 17 10 29 -6 22 -30 12
-40 -44 -43 -57 -3 -53 4 -56 -94 l-2 -48 78 0 78 0 0 -32 c0 -18 7 -42 15
-52 8 -11 15 -33 15 -49 0 -16 4 -46 9 -66 42 -161 50 -216 55 -373 3 -103 2
-170 -4 -173 -6 -4 -10 -13 -10 -22 0 -19 -28 -42 -52 -43 -10 0 -18 -4 -18
-9 0 -13 38 -21 108 -21 l62 0 2 138 c2 212 3 238 18 374 7 70 17 125 21 122
4 -2 13 -29 19 -59 6 -30 25 -92 41 -138 16 -45 29 -95 29 -112 0 -66 32 -210
52 -238 12 -17 22 -40 23 -51 1 -16 9 -22 31 -24 43 -3 62 12 47 37 -10 16
-10 26 -1 46 9 20 8 28 -4 42 -13 17 -31 94 -59 271 -8 49 -9 79 -2 95 6 13 7
49 2 92 -4 39 -8 142 -8 230 -2 227 18 290 80 247 20 -14 23 -13 40 9 10 13
16 26 13 28 -2 3 -30 3 -61 2 -53 -2 -55 -2 -50 19 3 12 2 30 -2 39 -16 32
-43 116 -43 132 1 11 -23 29 -64 49 -35 17 -79 45 -97 61 -31 29 -31 31 -13
44 11 9 16 20 12 30 -3 9 -2 24 3 33 10 18 3 73 -8 71 -3 -1 -39 -5 -80 -10z"/>
<path d="M19 1613 c-14 -3 -16 -27 -18 -178 -2 -152 0 -175 14 -175 19 0 19
-30 0 -56 -19 -26 -20 -74 0 -74 18 0 19 -14 5 -41 -10 -17 -7 -19 20 -19 27
0 30 3 30 30 0 17 4 30 9 30 5 0 16 3 25 6 24 9 31 -23 11 -46 -18 -19 -17
-20 14 -20 26 0 32 4 29 18 -2 11 3 26 11 35 16 20 71 23 89 5 8 -8 12 -9 12
-1 0 6 3 18 6 27 4 11 0 16 -12 16 -25 1 -98 66 -89 79 3 6 17 11 31 11 17 0
24 -5 24 -20 0 -11 5 -20 10 -20 11 0 13 51 4 99 -7 33 -28 42 -38 15 -3 -9
-12 -14 -18 -12 -14 5 -13 55 3 127 9 39 7 45 -11 58 -11 8 -20 21 -20 29 0
14 -21 19 -32 8 -3 -3 -1 -19 5 -35 9 -21 17 -29 29 -25 29 7 21 -9 -24 -48
-41 -34 -42 -37 -20 -42 22 -6 29 -19 14 -28 -5 -3 -7 -19 -4 -36 3 -22 -1
-35 -14 -45 -19 -13 -34 -11 -34 4 0 5 9 11 20 14 17 4 18 8 7 30 -6 14 -15
23 -19 21 -15 -10 -17 16 -3 50 19 45 19 115 1 142 -8 11 -16 31 -18 44 -3 25
-18 32 -49 23z"/>
<path d="M11955 293 c-16 -9 -32 -20 -36 -24 -3 -5 -28 -10 -57 -11 -34 -2
-52 -7 -52 -15 0 -18 -45 -16 -63 2 -16 16 -76 16 -78 0 -6 -75 -8 -187 -4
-212 l6 -33 104 0 c104 0 105 0 105 24 0 35 10 56 26 56 16 0 19 -16 4 -25 -5
-3 -10 -17 -10 -31 0 -20 5 -24 29 -24 16 0 32 6 35 13 5 9 7 9 12 0 10 -22
24 -14 24 12 0 18 -7 28 -25 35 -14 5 -25 14 -25 20 0 5 11 10 25 10 l25 0 0
110 c0 61 -3 110 -7 110 -5 -1 -21 -8 -38 -17z"/>
</g>
</svg>
